<?xml version="1.0" encoding="UTF-8"?>
<svg id="Layer_1" xmlns="http://www.w3.org/2000/svg" version="1.1" viewBox="0 0 375 375">
  <!-- Generator: Adobe Illustrator 29.1.0, SVG Export Plug-In . SVG Version: 2.1.0 Build 142)  -->
  <path d="M83.08,159.99c0,.08-.02.42-.06,1.02-.04.6-.26.9-.66.9h-.24c-.4-.8-.8-1.32-1.2-1.56-.4-.24-.82-.38-1.26-.42-.44-.04-.82-.08-1.14-.12-.32-.04-.52-.26-.6-.66,0-.16-.08-.42-.24-.78-.16-.36-.24-.62-.24-.78v-1.92c0-.16.04-.32.12-.48l.24-.48-.24-.48c-.08-.16-.12-.28-.12-.36l-.12-.12c-.16,0-.24-.08-.24-.24,0-.56.16-1.16.48-1.8.32-.64.44-1.36.36-2.16,0-.48-.12-.9-.36-1.26-.24-.36-.4-.78-.48-1.26v-.24c.4-.56.62-1.02.66-1.38.04-.36.38-.54,1.02-.54,0-.56-.08-1.3-.24-2.22-.16-.92-.52-1.5-1.08-1.74,0-1.12-.12-1.9-.36-2.34-.24-.44-.4-1.1-.48-1.98,0-.16.04-.32.12-.48,0-.08.04-.2.12-.36v-.12c0-.16.04-.28.12-.36,0-.16.04-.28.12-.36,0-.08-.08-.3-.24-.66-.16-.36-.24-.62-.24-.78v-.72c-.08-1.12,0-2.18.24-3.18.24-1,.32-2.06.24-3.19-.08-.56-.2-1.06-.36-1.5-.16-.44-.24-.86-.24-1.26,0-.64.12-1.4.36-2.28.24-.88.4-1.64.48-2.28.16-1.2.12-1.98-.12-2.34-.24-.36-.16-.98.24-1.86h.36c.08,0,.22.04.42.12.2.08.3.16.3.24.4-.24.86-.66,1.38-1.26.52-.6.7-1.1.54-1.5,0-.24-.12-.58-.36-1.02-.24-.44-.48-.74-.72-.9.56-.8.76-1.64.6-2.52-.08-.56-.26-.84-.54-.84s-.62-.08-1.02-.24v-.36c.72-1.12,1.46-2.28,2.21-3.49.76-1.2,1.06-2.48.9-3.85l2.51-.24c0-.08.04-.16.12-.24.16-.16.24-.32.24-.48v-.24c0-.24-.08-.4-.24-.48-.16-.08-.28-.32-.36-.72h.84c-.4-.88-.28-1.46.36-1.74.64-.28,1.2-.42,1.68-.42.48-.08.96,0,1.44.24.48.24.96.48,1.44.72.16.8.26,1.6.3,2.4.04.8.14,1.52.3,2.16,0,.72-.1,1.34-.3,1.86-.2.52-.26,1.14-.18,1.86.08.56.14,1.08.18,1.56.04.48.26.92.66,1.32,0,.24-.1.36-.3.36h-.6c-.2,0-.34.04-.42.12-.08.08-.04.28.12.6,0,.08.1.22.3.42.2.2.34.34.42.42v.12c0,.24-.04.48-.12.72-.08.24-.08.56,0,.96v.72c0,.08.04.22.12.42.08.2.12.38.12.54-.08.08-.12.16-.12.24v.36c0,.32.1.66.3,1.02.2.36.5.54.9.54.64-.16,1.38-.64,2.21-1.44.84-.8,1.69-1.2,2.57-1.2l.12-.12c.08,0,.18.02.3.06.12.04.26.06.42.06.56-.4,1.12-.88,1.68-1.44.56-.56,1.16-.92,1.8-1.08h.78c.44,0,.7-.04.78-.12.08,0,.3-.16.66-.48.36-.32.54-.52.54-.6h.84c.8-.24,1.56-.62,2.27-1.14.72-.52,1.42-1.04,2.09-1.56.68-.52,1.36-.98,2.03-1.38.68-.4,1.42-.64,2.21-.72.64-.08,1.1.08,1.38.48.28.4.66.56,1.14.48.32,0,.52-.24.6-.72.08-.48.22-1.02.42-1.62.2-.6.54-1.18,1.02-1.74.48-.56,1.24-.92,2.27-1.08v-.24c0-.16-.1-.32-.3-.48-.2-.16-.34-.28-.42-.36.16-.16.32-.42.48-.78.16-.36.32-.62.48-.78.32.4.46.72.42.96-.04.24-.02.56.06.96.64,0,.96-.48.96-1.44,0-.64-.32-1.04-.96-1.2l-.24-2.16c.24,0,.52-.08.84-.24.32-.16.48-.4.48-.72,0-.4-.16-.76-.48-1.08h-.36c-.08.08-.24.16-.48.24-.24.08-.44.2-.6.36,0-.16-.02-.32-.06-.48-.04-.16-.06-.32-.06-.48-.16-.64-.16-1.28,0-1.92.16-.64.2-1.28.12-1.92v-.48c-.32.16-.5.3-.54.42-.04.12-.04.28,0,.48.04.2.08.4.12.6.04.2-.02.42-.18.66,0,.16-.2.24-.6.24-.24.08-.44.12-.6.12-.08.08-.12.22-.12.42s-.04.34-.12.42l-.12.12c-.24,0-.4-.1-.48-.3-.08-.2-.12-.44-.12-.72s.04-.66.12-1.14c-.56,0-1.08-.12-1.56-.36-.48-.24-.96-.5-1.44-.78-.48-.28-.98-.52-1.5-.72-.52-.2-1.06-.3-1.62-.3l.12.96,2.15,1.92c-.16,0-.5.02-1.02.06-.52.04-.86.06-1.02.06-.16.08-.28.12-.36.12-.08.08-.16.12-.24.12h-.12c-.72,0-1.16-.22-1.32-.66-.16-.44-.28-.94-.36-1.5-.64.08-1.1.12-1.38.12s-.48-.06-.6-.18c-.12-.12-.26-.32-.42-.6-.16-.28-.4-.7-.72-1.26l-.24-.24c-.16.16-.32.44-.48.84-.16.4-.44.64-.84.72-.24.08-.46.04-.66-.12-.2-.16-.46-.24-.78-.24-.24,0-.42.08-.54.24-.12.16-.34.24-.66.24-.32.08-.68.06-1.08-.06-.4-.12-.76-.28-1.08-.48-.32-.2-.72-.46-1.2-.78-.64,0-1.16.16-1.56.48-.4.32-.92.56-1.56.72-1.2.08-2.53.08-4.01,0-1.48-.08-2.81-.12-4.01-.12-.56-.16-1.06-.46-1.5-.9-.44-.44-.74-.74-.9-.9h-.36c-.08.08-.32.34-.72.78-.4.44-.68.7-.84.78-.48.4-1.26.66-2.33.78s-2.15.3-3.23.54c-1.08.24-2.02.64-2.81,1.2-.8.56-1.12,1.44-.96,2.64.08.8.4,1.58.96,2.34.56.76.92,1.58,1.08,2.46v.6l-.72-.6c-.56.32-.84.8-.84,1.44.08.24.22.4.42.48.2.08.3.24.3.48,0,.4-.2.62-.6.66-.4.04-.6.22-.6.54.16.4.28.86.36,1.38.08.52.44.74,1.08.66.24,0,.48-.16.72-.48l-.48-.24c.72-.72,1.36-1.08,1.92-1.08.16.88-.04,1.44-.6,1.68.08,0,.2.08.36.24.16.16.24.32.24.48-.08.16-.12.28-.12.36-.08.08-.12.16-.12.24v.12c0,.08-.02.38-.06.9-.04.52-.06.86-.06,1.02-.32-.08-.72.06-1.2.42-.48.36-.96.74-1.44,1.14-.48.4-.94.78-1.38,1.14-.44.36-.82.54-1.14.54-.32.08-.72.04-1.2-.12-.48-.16-.96-.34-1.44-.54-.48-.2-1.12-.46-1.92-.78-.16.08-.28.2-.36.36l-.48.48c-.08,0-.16.02-.24.06-.08.04-.16.06-.24.06,0-.72-.12-1.18-.36-1.38-.24-.2-.48-.32-.72-.36-.24-.04-.46-.08-.66-.12-.2-.04-.3-.26-.3-.66,0-.72.2-1.36.6-1.92,0-.08-.08-.22-.24-.42-.16-.2-.28-.3-.36-.3l-.12-.12-.12.12c-.08,0-.24.1-.48.3-.24.2-.36.34-.36.42h-.48c.56-.72.9-1.44,1.02-2.16.12-.72.14-1.44.06-2.16-.08-.8-.26-1.44-.54-1.92-.28-.48-.5-1.04-.66-1.68,0-.88.06-1.62.18-2.22.12-.6.06-1.26-.18-1.98.4.24.68.48.84.72.16,0,.3-.04.42-.12.12-.08.22-.12.3-.12-.08-.48-.2-.94-.36-1.38-.16-.44-.08-.86.24-1.26h.36c0,.24.04.4.12.48,0,.08.04.16.12.24h.36c.56,0,.92-.36,1.08-1.08.16-.72.56-1.12,1.2-1.2.08,0,.18-.02.3-.06.12-.04.22-.06.3-.06h.24c.16.08.28.16.36.24.16.16.28.24.36.24.56-.08,1.02-.42,1.38-1.02.36-.6.68-1.26.96-1.98.28-.72.6-1.4.96-2.04.36-.64.82-.96,1.38-.96.4,0,.66.1.78.3.12.2.38.26.78.18.32,0,.64-.06.96-.18.32-.12.36-.5.12-1.14l4.43-.36.72.48c.16-.64.28-1.06.36-1.26.08-.2.18-.32.3-.36.12-.04.28-.06.48-.06s.42-.16.66-.48c.08,0,.18-.2.3-.6.12-.4.22-.68.3-.84h.12l.24-.12c.4,0,.8.2,1.2.6v-1.8h.36c.16,0,.26.02.3.06.04.04.14.06.3.06.08,0,.16.1.24.3.08.2.16.34.24.42l.36.24.36-.72c.08.16.3.28.66.36.36.08.62.12.78.12h.12c.48,0,.74-.18.78-.54.04-.36.42-.58,1.14-.66.16,0,.42.06.78.18s.38.42.06.9c.08-.4.28-.74.6-1.02.32-.28.6-.54.84-.78.32.08.5.24.54.48.04.24.14.52.3.84h.48l.6-.48c.16.16.62.4,1.38.72.76.32,1.18.64,1.26.96.32-.48.54-.76.66-.84.12-.08.22-.14.3-.18.08-.04.18-.16.3-.36.12-.2.3-.66.54-1.38l.24-.24c.4,0,.64.06.72.18.08.12.16.3.24.54,0,.4-.12.74-.36,1.02-.24.28-.36.66-.36,1.14.16.88.44,1.32.84,1.32s.92.04,1.56.12c-.16.24-.36.54-.6.9-.24.36-.36.74-.36,1.14v.12l.24.12c.08,0,.22-.1.42-.3l.66-.66c.32-.32.6-.64.84-.96v-.36c-.08-.08-.28-.3-.6-.66-.32-.36-.56-.62-.72-.78-.16,0-.32-.04-.48-.12h-.36c-.08,0-.12-.04-.12-.12v-.48c.96.16,1.56-.04,1.8-.6.24-.56.64-1.12,1.2-1.68.16.32.3.58.42.78.12.2.38.3.78.3.56,0,.98-.22,1.26-.66.28-.44.7-.66,1.26-.66,1.44-.16,2.95.08,4.55.72,1.59.64,3.07,1.16,4.43,1.56.16.16.42.18.78.06s.58-.22.66-.3c0,.16.14.3.42.42.28.12.46.22.54.3,0,.16.08.32.24.48.08.16.16.28.24.36.48.16,1.1.04,1.86-.36.76-.4,1.42-.68,1.97-.84.08.8.3,1.46.66,1.98.36.52.98.74,1.85.66v.6l.48-.48c.08.24.22.48.42.72.2.24.3.4.3.48.08-.08.22-.2.42-.36.2-.16.3-.28.3-.36l.12-.12h.12c.24,0,.44.16.6.48v.12c.08.4.02.78-.18,1.14-.2.36-.44.72-.72,1.08-.28.36-.52.76-.72,1.2-.2.44-.3.9-.3,1.38v.72c0-.24.1-.42.3-.54.2-.12.46-.24.78-.36.32-.12.58-.3.78-.54.2-.24.3-.56.3-.96v-.36c-.08-.08-.12-.16-.12-.24s-.04-.16-.12-.24l-.24-.24c.16-.56.34-.9.54-1.02.2-.12.5-.18.9-.18.48-.08.92.02,1.32.3.4.28.6.62.6,1.02v.36c-.08,0-.18.1-.3.3-.12.2-.18.38-.18.54l.36.24h.24c0,.48-.08.92-.24,1.32-.16.4-.16.88,0,1.44,0,.64.1,1.14.3,1.5.2.36.34.82.42,1.38,0,.16-.02.38-.06.66-.04.28-.22.42-.54.42l-.12-.12h-.24c-.08,0-.16-.04-.24-.12,0,.08-.1.22-.3.42s-.3.38-.3.54.08.38.24.66c.16.28.28.5.36.66l.12-.12c.16-.16.44-.3.84-.42.4-.12.6-.22.6-.3l.12.12c0,.08-.02.4-.06.96-.04.56-.1,1.18-.18,1.86-.08.68-.16,1.32-.24,1.92-.08.6-.12.94-.12,1.02-.08.08-.32.46-.72,1.14-.4.68-.56,1.22-.48,1.62v.72c0,.08.04.12.12.12,0,.08.04.16.12.24,0,.08.04.16.12.24-.4,0-.94-.16-1.62-.48-.68-.32-1.18-.4-1.5-.24-.16,0-.28.08-.36.24-.08.16-.2.32-.36.48-.08.16-.22.54-.42,1.14-.2.6-.34.98-.42,1.14.4-.16.66.02.78.54.12.52.22.86.3,1.02-.24,0-.56.18-.96.54-.4.36-.82.76-1.26,1.2s-.8.88-1.08,1.32c-.28.44-.42.78-.42,1.02v.12l.36.36c.08.16.2.28.36.36l.12.12v.36c-.48-.08-.84,0-1.08.24s-.4.5-.48.78c-.08.28-.18.52-.3.72-.12.2-.3.26-.54.18-.8-.24-1.2-.5-1.2-.78s-.16-.7-.48-1.26h-.48c-.16.24-.38.62-.66,1.14-.28.52-.62.86-1.02,1.02-.56,0-.8-.2-.72-.6h-2.39v1.08l-2.87.24-.72,2.64v-1.32c-.16-.08-.28-.12-.36-.12h-.48c-.4.24-.66.6-.78,1.08s-.22.94-.3,1.38c-.08.44-.22.84-.42,1.2-.2.36-.54.54-1.02.54-.4.16-.72-.04-.96-.6.4-.16.62-.54.66-1.14.04-.6.06-1.1.06-1.5.08,0,.24-.04.48-.12.24-.08.36-.2.36-.36,0-.72-.28-1.08-.84-1.08-.4,0-.68.3-.84.9-.16.6-.32,1.24-.48,1.92-.16.68-.38,1.3-.66,1.86-.28.56-.74.88-1.38.96-.16-.24-.28-.52-.36-.84-.24-.48-.36-.84-.36-1.08,0-.16.12-.24.36-.24l-.48-.6c-.08.32-.22.54-.42.66-.2.12-.4.22-.6.3-.2.08-.38.18-.54.3-.16.12-.24.34-.24.66.08.56.42.98,1.02,1.26.6.28.9.62.9,1.02-.08,0-.2.12-.36.36-.16.24-.28.4-.36.48h-.12c-.16.08-.28.12-.36.12h-.12c-.08,0-.26-.06-.54-.18-.28-.12-.42-.22-.42-.3h-.48c0,.08-.1.22-.3.42-.2.2-.34.3-.42.3-.16.16-.44.16-.84,0-.4-.16-.64-.32-.72-.48-.16.56-.44,1.18-.84,1.86-.4.68-.92,1.06-1.56,1.14,0-.64.02-1.22.06-1.74.04-.52.06-1.1.06-1.74h-1.2c0,.08.04.28.12.6.08.32.14.68.18,1.08.04.4.06.78.06,1.14s-.12.62-.36.78c-.08-.16-.2-.44-.36-.84-.16-.4-.32-.82-.48-1.26-.16-.44-.36-.84-.6-1.2-.24-.36-.52-.54-.84-.54-.16,0-.34.18-.54.54-.2.36-.3.58-.3.66h-1.92v.48l2.39,2.04.12.36c.16.32.12.62-.12.9-.24.28-.52.54-.84.78.24-1.04.1-1.58-.42-1.62-.52-.04-1.02-.06-1.5-.06.16,1.52-.16,2.94-.96,4.27-.8,1.32-1.48,2.7-2.04,4.15,0,.08.04.26.12.54.08.28.12.5.12.66-.08,0-.2.06-.36.18-.16.12-.28.18-.36.18,0,.08-.04.14-.12.18-.08.04-.12.1-.12.18.08.88.32,1.7.72,2.46.4.76.76,1.46,1.08,2.1,0,.16.04.42.12.78.08.36.16.62.24.78.24-.32.44-.24.6.24.16.48.44.72.84.72h.24c-.16-.96.12-1.52.84-1.68.56,0,.92.22,1.08.66.16.44.28.86.36,1.26.08.88.06,1.68-.06,2.4-.12.72-.3,1.52-.54,2.4v1.32c-.64-.08-.96.16-.96.72.08.16.22.68.42,1.57.2.88.34,1.32.42,1.32,0,.08.22.32.66.72.44.4.7.64.78.72v.72c0,.32-.06.96-.18,1.92-.12.96-.18,1.6-.18,1.92l-.72-.24c.16.4.2.86.12,1.38-.08.52-.44.82-1.08.9-.4,0-.68-.2-.84-.6v-.12c0-.16.02-.32.06-.48.04-.16.1-.24.18-.24,0-.16-.02-.24-.06-.24s-.06-.04-.06-.12c-.48.08-.78.32-.9.72-.12.4-.18.86-.18,1.38s.02,1.04.06,1.56c.04.52-.06.94-.3,1.26-.16,0-.36.04-.6.12-.24.08-.44.12-.6.12-1.04.08-1.72-.12-2.03-.6-.32-.48-.54-1.02-.66-1.62-.12-.6-.24-1.16-.36-1.68-.12-.52-.5-.78-1.14-.78l-.12.36ZM64.89,92.56c-.64.08-1.04.4-1.2.96-.16.56-.24,1.08-.24,1.56.64-.08,1.04-.42,1.2-1.02.16-.6.24-1.1.24-1.5ZM65.12,97.24c-.64,0-.96.28-.96.84v1.2c0,.08.04.24.12.48.08.24.12.44.12.6.24,0,.42-.44.54-1.32.12-.88.18-1.48.18-1.8ZM68.6,106.5c-.16,0-.24.12-.24.36s.08.36.24.36c.24,0,.36-.12.36-.36s-.12-.36-.36-.36ZM68.96,102.89c.08.48.24.94.48,1.38.24.44.6.58,1.08.42-.08-.64-.2-1.14-.36-1.5-.16-.36-.56-.46-1.2-.3ZM69.79,98.45c.16.16.46.46.9.9.44.44.74.74.9.9-.08-.08-.12-.2-.12-.36-.08-.32-.16-.76-.24-1.32-.08-.56-.32-.84-.72-.84h-.12c-.08,0-.14.02-.18.06s-.1.06-.18.06c-.08.08-.16.12-.24.12v.48ZM70.99,105.78c-.24,0-.36.14-.36.42s.12.42.36.42c.16,0,.24-.14.24-.42s-.08-.42-.24-.42ZM71.11,95.08c0-.08-.08-.12-.24-.12s-.16.04,0,.12c0,.16.04.24.12.24s.12-.08.12-.24ZM71.35,102.53c-.24,0-.34.12-.3.36.04.24.18.36.42.36.16,0,.22-.12.18-.36-.04-.24-.14-.36-.3-.36ZM71.71,97c-.24,0-.34.12-.3.36.04.24.18.36.42.36.16-.08.22-.24.18-.48-.04-.24-.14-.32-.3-.24ZM72.43,94.96c-.08-.08-.22-.12-.42-.12s-.26.04-.18.12c.16.24.36.24.6,0ZM72.55,96.28v-.24h-.48l.48.24ZM76.14,100.25c-.16,0-.24.14-.24.42s.08.42.24.42.24-.14.24-.42-.08-.42-.24-.42ZM79.13,144.96c0,.08.02.24.06.48.04.24.1.5.18.78.08.28.18.52.3.72s.26.3.42.3h.48c0-.16.04-.36.12-.6,0-.16.02-.3.06-.42.04-.12.06-.26.06-.42v-.12c0-.08.02-.12.06-.12.04,0,.06-.04.06-.12-.08-.48-.3-.72-.66-.72s-.74.08-1.14.24ZM80.68,143.52c-.16,0-.24.12-.24.36s.08.36.24.36c.24,0,.36-.12.36-.36s-.12-.36-.36-.36ZM81.04,108.9c-.08,0-.12.04-.12.12s.04.12.12.12c.16-.08.16-.16,0-.24ZM81.64,107.34c-.16,0-.22.12-.18.36.04.24.14.36.3.36.24,0,.34-.12.3-.36-.04-.24-.18-.36-.42-.36ZM81.64,116.6c-.16,0-.22.12-.18.36.04.24.14.36.3.36.24,0,.34-.12.3-.36-.04-.24-.18-.36-.42-.36ZM82.6,159.39c-.08-.16-.12-.16-.12,0s.04.24.12.24c.16,0,.24-.04.24-.12s-.08-.12-.24-.12ZM82.84,106.62l.36-.24c0-.48-.12-.68-.36-.6v.84ZM85.11,97.85c-.16-.08-.24-.04-.24.12s.08.24.24.24c.16-.08.24-.18.24-.3s-.08-.14-.24-.06ZM85.71,78.98c-.16-.08-.24.06-.24.42s.08.5.24.42c.08-.08.12-.22.12-.42s-.04-.34-.12-.42ZM86.31,139.19c-.16,0-.22.1-.18.3.04.2.14.3.3.3s.22-.1.18-.3c-.04-.2-.14-.3-.3-.3ZM86.43,84.99c-.16,0-.24.12-.24.36s.08.36.24.36.24-.12.24-.36-.08-.36-.24-.36ZM86.55,163.23c.08.08.2.12.36.12l.24-.12c.08-.08.12-.16.12-.24l-.36-.24-.24-.24c-.08,0-.12.04-.12.12v.12l-.24.24.24.24ZM86.91,161.43c0-.08-.06-.12-.18-.12s-.18.04-.18.12c0,.16.06.24.18.24s.18-.08.18-.24ZM87.51,78.98h.36v-.6h-.36v.6ZM87.87,150.97c0,.32.16.46.48.42.32-.04.64-.06.96-.06,0-.24-.06-.52-.18-.84-.12-.32-.38-.48-.78-.48h-.12l-.24.36c-.08.08-.12.16-.12.24v.36ZM87.99,162.75c-.08-.16-.12-.16-.12,0s.04.24.12.24c.16-.08.24-.16.24-.24s-.08-.08-.24,0ZM88.94,118.88c-.16,0-.24.1-.24.3s.08.3.24.3c.24-.08.36-.22.36-.42s-.12-.26-.36-.18ZM89.42,148.09c-.32.32-.48.6-.48.84h.48v-.84ZM89.54,116.72c.08.4.2.64.36.72v-.72h-.36ZM89.9,152.41l.36-.6h-.36v.6ZM93.37,79.46c.4.8,1,1.12,1.79.96-.08-.4-.16-.74-.24-1.02-.08-.28-.36-.38-.84-.3-.4,0-.64.12-.72.36ZM96.48,120.44h.36l-.24-.72h-.24l.12.72ZM97.2,78.25c-.4.08-.6.28-.6.6h.6v-.6ZM98.4,117.56h.48v-.24l-.48.24ZM98.76,120.56c0,.08.06.22.18.42.12.2.22.3.3.3.32,0,.56-.14.72-.42.16-.28.2-.54.12-.78v-.36c0-.16-.1-.3-.3-.42-.2-.12-.34-.18-.42-.18h-.36c-.08.16-.14.42-.18.78-.04.36-.06.58-.06.66ZM102.83,84.63c.16,0,.3-.18.42-.54.12-.36.18-.58.18-.66l-.6.12v1.08ZM103.19,80.54c.08.72.2,1.18.36,1.38.16.2.56.26,1.2.18-.16-1.04-.68-1.56-1.56-1.56ZM104.74,116.96c-.16,0-.22.14-.18.42.04.28.14.42.3.42.24-.16.34-.38.3-.66-.04-.28-.18-.34-.42-.18ZM106.06,74.53c-.16,0-.24.12-.24.36s.08.36.24.36c.32,0,.48-.12.48-.36s-.16-.36-.48-.36ZM113.12,83.42h.36v-.6l-.36.6ZM113.96,111.67c.08,0,.12-.04.12-.12s.04-.16.12-.24.12-.2.12-.36v-.24c0-.08.04-.16.12-.24h-.72l.24,1.2ZM119.11,100.13c.16,1.68.92,2.48,2.27,2.4v-.72c.48.32,1.12.4,1.91.24.16,0,.46-.02.9-.06.44-.04.66-.26.66-.66l-.12-.12c-.8-.16-1.54-.5-2.21-1.02-.68-.52-1.46-.78-2.33-.78-.16.08-.38.14-.66.18-.28.04-.42.22-.42.54ZM122.34,94.12c.24-.08.58-.18,1.02-.3.44-.12.58-.38.42-.78.16,0,.4.02.72.06.32.04.56.06.72.06.08.08.16.12.24.12h.36c0-.24-.14-.54-.42-.9-.28-.36-.62-.72-1.02-1.08-.4-.36-.78-.66-1.14-.9-.36-.24-.66-.36-.9-.36l-.24.12.24,3.97ZM124.73,95.32l-.24-.84-.24.48.48.36ZM127.01,92.2c-.16,0-.24.14-.24.42s.08.42.24.42c.24,0,.36-.14.36-.42s-.12-.42-.36-.42ZM127.72,95.68c-.16,0-.24.06-.24.18s.08.18.24.18c.16-.16.24-.28.24-.36s-.08-.08-.24,0Z"/>
  <path d="M164.97,216.39c-.64,0-.96.36-.96,1.08,0-.4-.1-.68-.3-.84-.2-.16-.44-.26-.72-.3-.28-.04-.52-.12-.72-.24-.2-.12-.26-.3-.18-.54h1.44c-.08-.08-.08-.16,0-.24.08-.08.08-.12,0-.12,0-.16-.04-.34-.12-.54-.08-.2-.12-.34-.12-.42,0-.32.12-.48.36-.48h1.32c-.08-.4-.28-.68-.6-.84-.32-.16-.64-.24-.96-.24-.56-.08-.92.08-1.08.48-.16.4-.2.8-.12,1.2-.56,0-1.34-.3-2.33-.9-1-.6-2.02-1.32-3.05-2.16-1.04-.84-1.93-1.66-2.69-2.46-.76-.8-1.18-1.44-1.26-1.92l-3.59-.24c0,.16-.08.4-.24.72-.16.32-.32.56-.48.72h-.24c-.16,0-.3-.14-.42-.42-.12-.28-.26-.6-.42-.96-.16-.36-.32-.7-.48-1.02-.16-.32-.36-.52-.6-.6l-.36.12c-.08,0-.26.06-.54.18-.28.12-.46.22-.54.3l-.24-.12c-.24,0-.76-.34-1.56-1.02-.8-.68-1.66-1.46-2.57-2.34-.92-.88-1.82-1.72-2.69-2.52-.88-.8-1.48-1.32-1.79-1.56-.08,0-.32-.06-.72-.18-.4-.12-.8-.22-1.2-.3-.4-.08-.96-.24-1.68-.48-.96-.32-1.84-.9-2.63-1.74-.8-.84-1.58-1.74-2.33-2.71-.76-.96-1.48-1.9-2.15-2.82-.68-.92-1.3-1.7-1.85-2.34-.48-.56-.92-1.02-1.32-1.38-.4-.36-.74-.74-1.02-1.14-.28-.4-.48-.86-.6-1.38-.12-.52-.18-1.26-.18-2.22v-.12c.08,0,.2-.08.36-.24l.24-.24.24-.24c0-.08-.26-.42-.78-1.02-.52-.6-.74-1.22-.66-1.86,0-.88.18-1.6.54-2.16.36-.56.78-1.04,1.26-1.44.48-.4.96-.82,1.44-1.26.48-.44.84-1.02,1.08-1.74.96-.4,1.93-.78,2.93-1.14,1-.36,1.93-.78,2.81-1.26.8-.48,1.26-.86,1.38-1.14.12-.28.24-.5.36-.66.12-.16.38-.32.78-.48.4-.16,1.24-.32,2.51-.48.08.08.28.12.6.12.32.08.58.14.78.18.2.04.42.34.66.9.08-.16.34-.48.78-.96.44-.48.92-.98,1.44-1.5.52-.52.98-1,1.38-1.44.4-.44.64-.66.72-.66.56-.08,1.14-.04,1.74.12.6.16,1.1.04,1.5-.36.16-.08.18-.32.06-.72-.12-.4-.1-.64.06-.72.4-.4,1.02-.66,1.85-.78.84-.12,1.46-.38,1.86-.78.08-.16.14-.36.18-.6.04-.24.06-.4.06-.48s.22-.28.66-.6c.44-.32.94-.68,1.5-1.08.56-.4,1.12-.78,1.67-1.14.56-.36.96-.66,1.2-.9,0-.16.16-.42.48-.78.32-.36.66-.72,1.02-1.08.36-.36.68-.68.96-.96.28-.28.46-.46.54-.54.16,0,.36-.4.6-1.2.24-.8.6-1.2,1.08-1.2l.12.12c0,.08.04.12.12.12l.72,1.92h.24c.4.08.7-.14.9-.66.2-.52.34-.94.42-1.26v-.36c.08-.4-.22-.94-.9-1.62-.68-.68-1.26-.98-1.74-.9-.16,0-.34.14-.54.42-.2.28-.34.5-.42.66h-.6c0-.64.12-1.24.36-1.8.24-.56.36-1.16.36-1.8v-.24c-.32.4-.76.72-1.32.96-.56.24-1.04.48-1.44.72l-.84-2.76h-.48c-.16.64-.36,1.24-.6,1.8-.24.56-.56,1.2-.96,1.92-.8-.72-1.58-1.58-2.33-2.58-.76-1-1.78-1.5-3.05-1.5-.88-.08-1.6,0-2.15.24-.56.24-.84.92-.84,2.04h.12c-.4-.32-.56-.5-.48-.54.08-.04.16-.22.24-.54l-3.47-.12-.12-.12c-.16-.16-.28-.24-.36-.24l-.24-.12-.24.12-.36.36-.24.12c-.08,0-.12-.04-.12-.12l-.12-.12c-.16-.32-.44-.82-.84-1.5-.4-.68-.68-1.26-.84-1.74-.08.08-.24.26-.48.54-.24.28-.54.58-.9.9-.36.32-.72.6-1.08.84-.36.24-.7.4-1.02.48.08-.88.04-1.72-.12-2.52-.16-.8-.52-1.56-1.08-2.28-.16.16-.36.62-.6,1.38-.24.76-.36,1.22-.36,1.38,0,.08.08.3.24.66.16.36.2.62.12.78l.12.36-.12.24c-.08.16-.22.28-.42.36-.2.08-.38.16-.54.24,0-.24-.04-.78-.12-1.62-.08-.84-.2-1.38-.36-1.62.16-.16.18-.32.06-.48-.12-.16-.22-.28-.3-.36h-.36c0,.08-.04.32-.12.72-.08.4-.2.8-.36,1.2-.16.4-.36.78-.6,1.14-.24.36-.52.54-.84.54l-.24-.12c-.08,0-.14-.16-.18-.48-.04-.32-.1-.48-.18-.48,0-.08-.14-.02-.42.18-.28.2-.46.3-.54.3,0,.32.08.66.24,1.02.16.36.24.74.24,1.14-.4,0-.74-.18-1.02-.54-.28-.36-.62-.58-1.02-.66-.08-.08-.18-.14-.3-.18-.12-.04-.26-.1-.42-.18-.24-.08-.44-.16-.6-.24l-1.32,2.28h-3.35l-.48.24c.08.88.02,2.04-.18,3.49-.2,1.44-.7,2.48-1.5,3.12-.16.16-.32.24-.48.24h-.24l.12-2.04c-.08,0-.16-.04-.24-.12-.08,0-.16-.02-.24-.06-.08-.04-.16-.06-.24-.06-.32.16-.56.48-.72.96-.16.48-.24.88-.24,1.2-.08.88.14,1.56.66,2.04.52.48.74,1.16.66,2.04-1.36-.08-2.08.64-2.15,2.16h-.48l-.12,1.32,1.2-.96c.24.64.58,1.28,1.02,1.92.44.64.7,1.28.78,1.92-.16.32-.24.52-.24.6s-.14.26-.42.54-.46.5-.54.66c-.16.16-.26.62-.3,1.38-.04.76.02,1.22.18,1.38-.08-.16-.22-.32-.42-.48-.2-.16-.34-.32-.42-.48l-.24-.12-.24.12c-.08,0-.2.1-.36.3-.16.2-.28.3-.36.3l.12.12c0,.64.02,1.3.06,1.98.04.68.18,1.34.42,1.98.24.64.6,1.18,1.08,1.62.48.44,1.12.66,1.91.66,0,.72-.12,1.34-.36,1.86-.24.52-.48.96-.72,1.32-.24.36-.46.7-.66,1.02-.2.32-.3.72-.3,1.2v.24c.16.16.3.36.42.6.12.24.26.4.42.48v2.52c.08.96-.1,1.78-.54,2.46-.44.68-.7,1.46-.78,2.34.08.56.4,1.08.96,1.56.56.48.84,1,.84,1.56,0,.08-.02.18-.06.3-.04.12-.06.26-.06.42,0,.08-.02.52-.06,1.32-.04.8-.1,1.66-.18,2.58-.08.92-.18,1.8-.3,2.64-.12.84-.18,1.3-.18,1.38v.48c.16.16.46.3.9.42.44.12.66.38.66.78,0,.32-.08.5-.24.54-.16.04-.3.12-.42.24s-.26.3-.42.54c-.16.24-.24.72-.24,1.44v.24c.4-.4.56-.68.48-.84-.08-.16.16-.24.72-.24,0,.16-.02.62-.06,1.38-.04.76-.1,1.23-.18,1.38-.08.4-.52,1-1.32,1.8-.8.8-1.52,1.32-2.15,1.56-.64.72-1.1,1.32-1.38,1.8-.28.48-.66.72-1.14.72-.56,0-1.1-.12-1.62-.36-.52-.24-1.02-.4-1.5-.48l.24-5.65c0-.16-.16-.32-.48-.48-.32-.16-.6-1.14-.84-2.94-.24-1.8-.42-3.83-.54-6.07-.12-2.24-.18-4.37-.18-6.37s.08-3.28.24-3.85c-.16-.16-.34-.74-.54-1.74-.2-1-.42-2.22-.66-3.67-.24-1.44-.44-3-.6-4.69-.16-1.68-.32-3.29-.48-4.81-.16-1.52-.3-2.84-.42-3.97-.12-1.12-.18-1.84-.18-2.16v-.78c0-.44-.02-.9-.06-1.38-.04-.48-.06-.94-.06-1.38v-.78c0-.16.02-.54.06-1.14.04-.6.08-1.24.12-1.92.04-.68.1-1.3.18-1.86.08-.56.12-.92.12-1.08v-.48c-.24-1.36-.5-2.64-.78-3.85-.28-1.2-.38-2.48-.3-3.85.08-.56.24-.8.48-.72.24.08.48.12.72.12l.12-2.4,2.99.24.72-.96-3.71-.12c-.08-.56.14-.92.66-1.08.52-.16,1.1-.72,1.74-1.68,0-.08.02-.18.06-.3.04-.12.1-.14.18-.06l1.2.84c.16-1.12.66-2.04,1.5-2.76.84-.72,1.45-1.64,1.85-2.76.16-.48.56-.8,1.2-.96.64-.16,1.24-.2,1.8-.12.4,0,.72.08.96.24.24.16.64.24,1.2.24.32.08.66.08,1.02,0,.36-.08.62-.36.78-.84-.08-.24-.26-.42-.54-.54-.28-.12-.58-.26-.9-.42.64,0,1.14-.24,1.5-.72.36-.48.74-.72,1.14-.72.24,0,.48.18.72.54.24.36.5.76.78,1.2.28.44.54.88.78,1.32.24.44.48.78.72,1.02.24-.08.44-.46.6-1.14.16-.68.36-1.38.6-2.1.24-.72.5-1.38.78-1.98.28-.6.62-.9,1.02-.9-.08,1.52-.44,3.05-1.08,4.57-.64,1.52-1.04,3-1.2,4.45-.16,1.68.52,2.52,2.04,2.52,0-.96.12-1.8.36-2.52.24-.72.4-1.52.48-2.4l-.84-.12c0-.8.18-1.38.54-1.74s.72-.6,1.08-.72c.36-.12.68-.26.96-.42.28-.16.38-.48.3-.96.48.32.8.42.96.3.16-.12.48-.14.96-.06v-1.68c-.24.48-.56.64-.96.48.08-.32.14-.82.18-1.5.04-.68.26-.98.66-.9.4,0,.96.16,1.68.48.72.32,1.28.6,1.68.84h.24c.08-.08.16-.12.24-.12.08-.08.22-.24.42-.48.2-.24.38-.44.54-.6h.24l.12.12c.08.8.18,1.34.3,1.62.12.28.26.44.42.48.16.04.36.06.6.06s.56.08.96.24c.08,0,.32.18.72.54.4.36.64.58.72.66.48.08.88-.04,1.2-.36.32-.32.56-.72.72-1.2.16-.48.32-.98.48-1.5.16-.52.32-.9.48-1.14l2.27,2.4c.48-.24.8-.08.96.48-.16.16-.36.32-.6.48-.24.16-.4.32-.48.48l.24.48c.32.08.62.12.9.12s.38.28.3.84h-.72c.08.24.02.48-.18.72-.2.24-.1.44.3.6.08-.16.38-.32.9-.48.52-.16.86-.24,1.02-.24h.48l-1.44,1.68-1.44,1.68v.24c.08.08.14.36.18.84.04.48.1.8.18.96h-1.32c-.08.4-.08.8,0,1.2.08.4.36.72.84.96.16-.16.4-.42.72-.78.32-.36.64-.54.96-.54.16.08.36.18.6.3.24.12.4.26.48.42l.12-3.85c.56,0,1.08.2,1.56.6.48.4.92.84,1.32,1.32.4.48.76.92,1.08,1.32.32.4.64.6.96.6l-.12-.96c.4,0,.78-.12,1.14-.36.36-.24.5-.56.42-.96-.32.24-.68.24-1.08,0-.4-.24-.82-.56-1.26-.96-.44-.4-.8-.8-1.08-1.2-.28-.4-.46-.72-.54-.96l1.56.12.24-.48c.16-.24.12-.48-.12-.72,0-.16-.08-.4-.24-.72-.16-.32-.32-.56-.48-.72l2.75-1.32c0,.16-.06.42-.18.78-.12.36-.22.58-.3.66v.36c0,.64.28,1,.84,1.08.56,0,1.08-.08,1.56-.24.48-.16.76-.56.84-1.2v-.24c0-.08-.02-.24-.06-.48-.04-.24-.1-.4-.18-.48l-.12-.6c.56,0,.96.14,1.2.42.24.28.42.58.54.9.12.32.22.64.3.96.08.32.24.56.48.72.64.32,1.2.48,1.68.48s.92.36,1.32,1.08c-.32,0-.5.12-.54.36-.04.24-.06.44-.06.6v.96c0,.24.12.48.36.72.56-.08,1.08-.48,1.56-1.2s.8-1.36.96-1.92c1.2,1.2,1.83,2.69,1.91,4.45.08,1.76.24,3.41.48,4.93.08.4.28.72.6.96.32.24.66.48,1.02.72.36.24.68.48.96.72.28.24.42.6.42,1.08,0,.08-.02.22-.06.42-.04.2-.12.42-.24.66-.12.24-.26.44-.42.6-.16.16-.36.2-.6.12-.4-.16-.7-.54-.9-1.14-.2-.6-.34-1.02-.42-1.26l-.6,1.44,2.75,2.76v.48c0,.08.04.12.12.12-.08.56-.44,1.16-1.08,1.8-.64.64-1.16,1.04-1.56,1.2.32.32.74.64,1.26.96.52.32.74.68.66,1.08,0,.16-.08.32-.24.48-.16-.16-.6-.36-1.32-.6-.72-.24-1.2-.36-1.44-.36v-.12c-.48-.08-.8.24-.96.96-.16.72-.32,1.12-.48,1.2-.08.08-.28.1-.6.06-.32-.04-.56-.06-.72-.06-.16.08-.4.28-.72.6-.32.32-.56.56-.72.72l-.12.24c0,.32.08.56.24.72.16.16.28.48.36.96-.08.8-.28,1.56-.6,2.28-.32.72-.68,1.52-1.08,2.4-.4-.24-.74-.44-1.02-.6-.28-.16-.62-.2-1.02-.12-.64-.08-1.04.14-1.2.66-.16.52-.3,1.12-.42,1.8-.12.68-.26,1.32-.42,1.92-.16.6-.48.98-.96,1.14l.24-5.65c.08-.32-.04-.42-.36-.3-.32.12-.56.18-.72.18-.08.08-.04.26.12.54.16.28.2.5.12.66l-.36.36-4.67-.12c.24.4.68.8,1.32,1.2.64.4.92.84.84,1.32-.56,0-1.2.2-1.92.6-.72.4-.88,1.04-.48,1.92-.72-.56-1-1.36-.84-2.4v-.6c.16,0,.48-.06.96-.18s.8-.14.96-.06c-.16-.08-.56-.22-1.2-.42-.64-.2-1.04-.26-1.2-.18h-.36c-.64-.08-.96.08-.96.48v1.32c-.08.8.1,1.5.54,2.1.44.6.66,1.26.66,1.98l-.12.24c-.16.16-.6.28-1.32.36-.72.08-1.2.08-1.44,0-.24-.16-.72-.5-1.44-1.02-.72-.52-1.16-.86-1.32-1.02v2.46c0,.68.24,1.1.72,1.26l-.24,4.09c-1.44-.08-2.11-.44-2.03-1.08.08-.64.16-1.52.24-2.64-.16,0-.44.1-.84.3-.4.2-.68.26-.84.18-.08-.16-.14-.48-.18-.96-.04-.48-.1-.8-.18-.96.08-.16.06-.32-.06-.48-.12-.16-.22-.28-.3-.36.8.32,1.3.28,1.5-.12.2-.4.3-.84.3-1.32l-3.35-.12c-.08.4-.12.76-.12,1.08-.08.32-.12.64-.12.96s-.04.6-.12.84v1.32c0,.64.16,1.16.48,1.56.32.4.72.76,1.2,1.08.48.32.96.66,1.44,1.02.48.36.92.78,1.32,1.26.64-.4,1.28-.6,1.92-.6.4.08.68.34.84.78.16.44.28.9.36,1.38l3.23.12c.16,0,.42.26.78.78.36.52.58.9.66,1.14,0,.24-.06.76-.18,1.56-.12.8-.22,1.32-.3,1.56h.72c.16-.64.32-1.16.48-1.56.16-.4.56-.92,1.2-1.56.08,0,.14.08.18.24.04.16.02.28-.06.36v.36c0,.08-.02.28-.06.6-.04.32-.1.56-.18.72l-.12.24c0,.56.2,1.02.6,1.38.4.36.86.74,1.38,1.14.52.4.98.84,1.38,1.32.4.48.56,1.12.48,1.92.08.4.06.66-.06.78s-.18.38-.18.78c.4-.08.8-.28,1.2-.6.4-.32.88-.44,1.44-.36l.24.12h.12c.08.08.18.3.3.66.12.36.22.62.3.78,0,.24.12.24.36,0,.08,0,.16-.04.24-.12-.08-1.12-.12-1.88-.12-2.28s.56-.52,1.68-.36c.16-.08.34-.08.54,0,.2.08.38.12.54.12,0,.24.1.5.3.78.2.28.38.5.54.66.32-.8.84-1.12,1.56-.96,0,1.6.08,2.58.24,2.95.16.36.44.52.84.48.4-.04.9-.08,1.5-.12.6-.04,1.33.34,2.21,1.14l.12.24-.12.24c0,.08-.06.14-.18.18-.12.04-.22.1-.3.18.16-.08.56-.1,1.2-.06.64.04,1,.1,1.08.18.08,0,.16.08.24.24.08.16.12.28.12.36h.36c.4.08.58-.16.54-.72-.04-.56.18-.8.66-.72h.48c-.08.08-.18.24-.3.48-.12.24-.26.4-.42.48.08.08.18.2.3.36.12.16.22.2.3.12.08-.08.2-.16.36-.24l.48-.24c.48-.08,1.04.1,1.68.54.64.44.96.9.96,1.38-.72,0-1.42-.06-2.1-.18-.68-.12-1.46-.22-2.33-.3v.36c.8.32,1.42.74,1.85,1.26.44.52.84,1.04,1.2,1.57s.74,1.02,1.14,1.5c.4.48.96.88,1.68,1.2.56-.4.96-.92,1.2-1.56.24-.64.36-1.28.36-1.92,0-.24-.1-.4-.3-.48-.2-.08-.26-.32-.18-.72.64,0,1.04.16,1.2.48.08.4.18,1.18.3,2.34.12,1.16.18,1.9.18,2.22l-.12.36v.24c-.24.4-.5.64-.78.72-.28.08-.5.44-.66,1.08-.08.32-.18,1-.3,2.04s-.18,1.72-.18,2.04h-.6c-.08,0-.3-.08-.66-.24-.36-.16-.62-.28-.78-.36-.16,0-.3.06-.42.18s-.1.26.06.42l.84,1.44-.12,4.57c0,.08-.2.2-.6.36-.16.16-.54.24-1.14.24s-1.02.08-1.26.24v.84c-.08,0-.3-.1-.66-.3-.36-.2-.76-.42-1.2-.66-.44-.24-.86-.5-1.26-.78-.4-.28-.72-.5-.96-.66-.4-.4-.54-.68-.42-.84.12-.16-.02-.28-.42-.36ZM104.76,145.35c0,.32.08.68.24,1.08.16.4.44.56.84.48v-1.68l-1.08.12ZM105.84,156.05c-.08.24.04.52.36.84l.12-.84h-.48ZM106.92,208.21c-.08.4,0,.66.24.78s.48.22.72.3h.24c.16-.08.3-.3.42-.66.12-.36.22-.58.3-.66v-.24c0-.64-.32-.96-.96-.96-.4-.08-.66.06-.78.42-.12.36-.18.7-.18,1.02ZM108.11,136.94c-.16-.08-.24,0-.24.24s.08.36.24.36c.08-.08.12-.2.12-.36s-.04-.24-.12-.24ZM108.71,174.56c-.08.64.06,1.16.42,1.56.36.4.82.6,1.38.6,0-1.2-.6-1.92-1.8-2.16ZM109.31,204.25c-.16,0-.24.14-.24.42s.08.42.24.42c.24,0,.36-.14.36-.42s-.12-.42-.36-.42ZM110.27,147.52l1.08-.12.12-.96-1.08.12-.12.96ZM110.39,157.13h.6v-.48h-.6v.48ZM111.23,205.21c-.24,0-.38.16-.42.48-.04.32.06.48.3.48.16,0,.26-.16.3-.48.04-.32-.02-.48-.18-.48ZM110.87,179.01l1.08-.84-.96-.12-.12.96ZM111.71,161.82c0,.16.04.42.12.78.08.36.12.58.12.66l.36.12.24-.12c-.08-.24-.14-.58-.18-1.02-.04-.44-.26-.74-.66-.9v.48ZM111.82,133.93c0-.16-.02-.04-.06.36-.04.4.02.56.18.48v-.48c0-.16-.04-.28-.12-.36ZM112.18,160.14c-.08-.16-.16-.12-.24.12-.08.24-.08.32,0,.24.16-.08.28-.16.36-.24.08-.08.04-.12-.12-.12ZM111.94,173.6c0,.32.2.6.6.84v-.84h-.6ZM112.3,146.07c.16.32.4.5.72.54.32.04.56.06.72.06v-.6h-1.44ZM113.38,140.55c0,.24.08.48.24.72.16.24.36.36.6.36l.12-1.08h-.96ZM114.22,134.9c-.16-.08-.24-.02-.24.18s.08.3.24.3c.16-.08.24-.18.24-.3s-.08-.18-.24-.18ZM114.7,142.95c-.16.32-.02.64.42.96.44.32.82.48,1.14.48.08,0,.32-.14.72-.42.4-.28.82-.6,1.26-.96.44-.36.84-.74,1.2-1.14.36-.4.54-.72.54-.96,0-.32-.16-.56-.48-.72-.24.16-.58.32-1.02.48-.44.16-.92.36-1.44.6-.52.24-1,.5-1.44.78-.44.28-.74.58-.9.9ZM115.89,135.98h.48v-1.8h-.48v1.8ZM120.8,142.23c.32-.08.5-.22.54-.42.04-.2.1-.46.18-.78,0-.16-.02-.36-.06-.6-.04-.24-.26-.4-.66-.48v2.28ZM125.71,134.05c-.16.24-.2.5-.12.78.08.28.28.46.6.54.32-.16.5-.38.54-.66.04-.28.14-.54.3-.78l-1.32.12ZM128.94,170.95c.08.24.32.44.72.6l.24-.6h-.96ZM129.42,128.17c-.24-.08-.38.04-.42.36-.04.32.06.52.3.6.16,0,.26-.16.3-.48.04-.32-.02-.48-.18-.48ZM130.26,132.13c-.08.32.16.76.72,1.32l.36-.48c-.16-.32-.52-.6-1.08-.84ZM130.86,129.73c.08.16.12.4.12.72s.16.52.48.6l.36-1.44-.96.12ZM131.33,177.44l.12-.48h-.48l.36.48ZM131.21,169.15c-.08-.08-.12-.04-.12.12s.04.24.12.24c.16-.08.24-.16.24-.24s-.08-.12-.24-.12ZM131.57,172.88c-.16-.08-.24-.04-.24.12s.08.24.24.24c.16-.08.24-.16.24-.24s-.08-.12-.24-.12ZM131.69,135.26c.08.16.16.28.24.36l.24.48h.24l.12.12-.12-2.88c-.16.16-.32.48-.48.96-.16.48-.24.8-.24.96ZM133.61,170.71c-.24,0-.4.14-.48.42-.08.28,0,.42.24.42.16,0,.28-.14.36-.42.08-.28.04-.42-.12-.42ZM134.93,179.13c-.24-.08-.36.04-.36.36s.12.52.36.6c.24,0,.36-.16.36-.48s-.12-.48-.36-.48ZM136,168.43c-.08-.08-.14,0-.18.24-.04.24-.06.48-.06.72v.66c0,.2.04.26.12.18.16-.08.24-.36.24-.84s-.04-.8-.12-.96ZM136.48,130.81c-.16-.08-.22.06-.18.42.04.36.14.58.3.66.24-.08.34-.3.3-.66-.04-.36-.18-.5-.42-.42ZM136.84,134.42v1.8c0,.64.44.92,1.32.84v-.72c0-.4-.02-.82-.06-1.26-.04-.44-.16-.84-.36-1.2-.2-.36-.5-.62-.9-.78.08.16.12.38.12.66s-.04.5-.12.66ZM137.44,168.31c-.08.32-.12.64-.12.96s.2.56.6.72c0-.08.04-.12.12-.12.24-.16.42-.52.54-1.08.12-.56.38-.84.78-.84l.24.12c.32.24.54.44.66.6.12.16.2.28.24.36.04.08.12.12.24.12h.78c.08-.8-.1-1.48-.54-2.04-.44-.56-1.14-.88-2.1-.96-.16,0-.44.28-.84.84-.4.56-.6,1-.6,1.32ZM138.99,131.29c-.48-.08-.8.02-.96.3-.16.28-.32.7-.48,1.26.56.08.94-.06,1.14-.42.2-.36.3-.74.3-1.14ZM138.16,182.49l.48-.36-.48-.6v.96ZM138.76,177.81l.48-.48h-.48v.48ZM139.95,128.53c-.16-.08-.26-.02-.3.18-.04.2.02.3.18.3.16-.08.26-.18.3-.3.04-.12-.02-.18-.18-.18ZM141.63,141.75c.16-.16.12-.24-.12-.24s-.36.08-.36.24c.08.08.18.12.3.12s.18-.04.18-.12ZM141.27,185.74l.48.12v-1.32l-.48-.12v1.32ZM142.47,199.92c.16-.16.16-.24,0-.24s-.28.08-.36.24c0,.16.04.24.12.24s.16-.08.24-.24ZM143.3,201.84c-.16-.08-.24.02-.24.3s.08.46.24.54c.24,0,.36-.14.36-.42s-.12-.42-.36-.42ZM143.54,185.5h.36v-.48h-.36v.48ZM143.78,190.19l.12-.6h-.36l.24.6ZM144.5,165.07v-.96l-.72.48.72.48ZM145.34,189.7c-.08,0-.14.08-.18.24-.04.16-.02.28.06.36.16-.08.26-.2.3-.36.04-.16-.02-.24-.18-.24ZM146.89,138.02c-.32,0-.58.12-.78.36-.2.24-.38.44-.54.6l1.32.24v-1.2ZM146.65,201.84c-.16-.08-.24-.04-.24.12s.08.24.24.24.24-.04.24-.12-.08-.16-.24-.24ZM147.25,162.78v-.36l-.48-.12.48.48ZM149.41,140.19c-.16-.08-.22.04-.18.36.04.32.14.52.3.6.24,0,.34-.16.3-.48-.04-.32-.18-.48-.42-.48ZM151.2,160.62c-.4-.16-.66.04-.78.6-.12.56-.26,1-.42,1.32h2.03c.08-.24.06-.64-.06-1.2-.12-.56-.38-.8-.78-.72ZM150.6,204.85h.48v-.36h-.48v.36ZM152.4,136.46c-.16.08-.24.28-.24.6s.12.44.36.36c.32,0,.46-.14.42-.42-.04-.28-.22-.46-.54-.54ZM153.36,204.49c-.24.16-.36.32-.36.48s-.04.36-.12.6c-.08.08-.12.24-.12.48.48-.32.72-.72.72-1.2l-.12-.24v-.12ZM153.36,138.86l-.48,1.8c.08,0,.16.04.24.12.16,0,.4-.18.72-.54.32-.36.48-.62.48-.78,0-.08-.04-.2-.12-.36-.08-.16-.2-.24-.36-.24l-.24-.12-.24.12ZM154.44,132.49c-.24,0-.36.12-.36.36s.12.4.36.48c.24.08.36-.02.36-.3s-.12-.46-.36-.54ZM154.44,134.78c.64.16,1.06.4,1.26.72.2.32.34.66.42,1.02.08.36.14.7.18,1.02.04.32.26.56.66.72l.72-1.08-.72-3.12h-.12c-.08,0-.12-.02-.12-.06s-.04-.06-.12-.06l-.24-.12c-.16.08-.5.22-1.02.42-.52.2-.82.38-.9.54ZM154.67,162.18c0,.16.06.4.18.72.12.32.22.56.3.72.16,0,.3-.08.42-.24.12-.16.14-.28.06-.36,0-.16-.08-.46-.24-.9-.16-.44-.44-.74-.84-.9v.24c0,.08.02.14.06.18.04.04.06.1.06.18v.36ZM155.03,142.83h.24c.08,0,.16-.04.24-.12.16-.16.36-.26.6-.3.24-.04.4-.06.48-.06-.16-.16-.34-.3-.54-.42-.2-.12-.38-.14-.54-.06h-.36l-.12.96ZM156.95,142.47c-.16-.08-.26.04-.3.36-.04.32.02.52.18.6.24-.08.38-.28.42-.6.04-.32-.06-.44-.3-.36ZM156.83,206.41c.16.64.52,1.04,1.08,1.2v-1.08l-1.08-.12ZM157.07,140.06l.48-.12-.48-.84v.96ZM158.03,151.12c0,.08.12.24.36.48l.24.12h.12l-.84-.96.12.24v.12ZM158.27,155.09c0,.24.02.5.06.78.04.28.22.5.54.66l.24-.12c0-.08.16-.2.48-.36.16-.08.32-.12.48-.12l.12-2.76c-.4.4-.82.66-1.26.78-.44.12-.66.5-.66,1.14ZM158.74,142.95c-.08.48.02.98.3,1.5.28.52.74.78,1.38.78l.12.12c-.16-.64-.3-1.3-.42-1.98-.12-.68-.26-1.3-.42-1.86l-.24-.12c-.4,0-.6.2-.6.6s-.04.72-.12.96ZM158.74,209.42h.48l.12-.6h-.48l-.12.6ZM159.1,211.7l.48-.48h-.48v.48ZM159.22,139.1c.64,0,1.06.1,1.26.3.2.2.3.42.3.66s.04.5.12.78c.08.28.32.54.72.78l.24-4.21c-.64.08-1.22.2-1.74.36-.52.16-.82.6-.9,1.32ZM161.38,135.38c0-.16-.1-.24-.3-.24s-.26.08-.18.24c.08.16.18.24.3.24s.18-.08.18-.24ZM161.26,152.69l.84.12v-.96l-.96-.12.12.96ZM161.98,145.35c.08-.16.02-.26-.18-.3-.2-.04-.3.02-.3.18s.08.26.24.3c.16.04.24-.02.24-.18ZM163.05,210.98c-.24-.08-.4.04-.48.36-.08.32,0,.52.24.6.24,0,.4-.16.48-.48.08-.32,0-.48-.24-.48ZM162.69,149.32c-.08.8.44,1.28,1.56,1.44,0-1.04-.4-1.76-1.2-2.16-.08,0-.16.06-.24.18-.08.12-.16.22-.24.3l.12.24ZM168.2,217.71c-.24,0-.38.14-.42.42-.04.28.06.46.3.54.24,0,.38-.18.42-.54.04-.36-.06-.5-.3-.42ZM168.2,207.01h1.08c-.08-.16-.2-.38-.36-.66-.16-.28-.36-.38-.6-.3l-.24.12.12.84ZM170.11,202.45c.08-.16.04-.24-.12-.24s-.24.08-.24.24c.08.16.16.24.24.24s.12-.08.12-.24ZM171.07,214.58h.48l-.48-.48v.48ZM173.59,209.18c-.16,0-.26.16-.3.48-.04.32.02.48.18.48.24-.08.38-.28.42-.6.04-.32-.06-.44-.3-.36ZM173.94,209.42c-.24.08-.34.28-.3.6.04.32.18.44.42.36.32,0,.46-.16.42-.48-.04-.32-.22-.48-.54-.48Z"/>
  <path d="M188.02,254.8c.06-.05.13-.16.21-.32.07-.16.14-.27.21-.32l-.15-.19-.15-.19c-.11-.01-.26,0-.43.04-.18.04-.32.05-.43.04s-.25.1-.42.33c-.17.24-.28.32-.33.26s-.16-.13-.32-.21c-.16-.08-.32-.15-.48-.23-.11-.01-.39-.17-.84-.48-.45-.31-.7-.5-.74-.56-.22-.03-.72-.24-1.5-.65-.78-.4-1.28-.62-1.5-.65-.05-.06-.27-.17-.64-.33-.38-.16-.59-.27-.64-.33s-.25-.19-.6-.37c-.35-.18-.7-.37-1.04-.55-.35-.18-.68-.38-1-.59-.32-.21-.53-.32-.64-.33-.16-.07-.48-.28-.95-.62-.47-.34-.98-.7-1.54-1.08-.55-.38-1.09-.74-1.62-1.09-.53-.35-.92-.62-1.18-.82-.06.05-.33-.1-.8-.44l-.63-.42c-.1-.13-.31-.29-.62-.5s-.56-.35-.72-.43l-.22-.28c-.06.05-.18.06-.35.04-.17-.02-.31-.03-.42-.05-.16-.07-.41-.26-.75-.56-.33-.29-.55-.51-.65-.63l-.59-.75c-.16-.08-.51-.1-1.06-.08-.54.02-.93.02-1.15,0s-.6.04-1.13.21c-.53.17-.83.27-.89.32-.13.1-.43.52-.91,1.26-.48.74-.76,1.14-.82,1.19l-.28.22-.28.22c-.06.05-.25.04-.55-.02s-.54-.08-.72-.04l-.38.3-.37.3c-.08.16-.18.45-.31.86-.13.41-.26.67-.39.77-.06.05-.3.26-.71.64-.41.38-.71.64-.9.79l-1.13.89c-.25.2-.49.34-.73.43-.13.1-.41.22-.85.37-.44.15-.7.25-.76.3s-.15.23-.27.52c-.12.3-.21.48-.27.52-.01.11-.31.38-.9.79-.59.42-.95.67-1.07.77-.06.05-.2.23-.41.55-.21.32-.37.53-.5.63-.08.16-.33.39-.76.68-.43.29-.68.46-.74.51-.2.26-.63.75-1.28,1.47-.65.72-1.07,1.16-1.26,1.31-.06.05-.3.14-.71.26-.41.12-.71.2-.88.24l-.19.15-.09.07-.06.51-.04.34c-.08.16-.29.34-.66.52-.36.19-.55.34-.56.45-.08.16-.19.44-.35.82-.16.38-.22.66-.18.84-.01.11.07.35.26.71.18.37.33.61.43.73-.13.1-.17.11-.13.03.04-.08,0-.07-.13.03-.22-.03-.48-.05-.76-.09-.28-.03-.44-.08-.49-.14-.11-.01-.25-.13-.43-.35s-.23-.36-.17-.41c-.06.05-.15.23-.27.52-.12.3-.21.48-.27.52l-.34-.04-.34-.04-.49-.23c-.32-.15-.51-.26-.56-.32-.06.05-.1.1-.1.16,0,.06-.04.11-.1.16-.01.11-.08.22-.21.32.1.13.23.23.39.3.16.08.21.2.13.36.05.06.07.15.05.26-.03.23-.07.36-.13.41-.03.23-.14.7-.34,1.41-.2.72-.34,1.22-.43,1.49l.15.19.15.19.63.42c.21.14.4.25.56.32l.22.28.07.09c.05.06.04.28-.03.64-.07.36-.08.57-.03.64.1.13.22.41.37.86.15.45.27.73.37.86-.13.1-.21.12-.26.05-.35.07-.57.05-.67-.08l-.74-.94-3.29-.3-.38.3-.19.15-.04.34-.02.17c-.03.23.13.62.46,1.17.33.55.52.92.55,1.09-.01.11.07.38.25.8.18.42.32.69.42.82l.26-.05c.06-.05.1-.13.11-.24.06-.05.09-.15.08-.29-.01-.14.02-.3.1-.46-.1-.13-.15-.45-.14-.96,0-.51-.01-.86-.05-1.03.11.01.3.12.56.32.26.2.42.34.47.4.04.18.09.54.17,1.09.08.55.13.92.17,1.09l.96,1.23,1.26,1.6c.1.13.48.41,1.14.86.66.45,1.04.73,1.13.86l.22.28.37.47c-.19.15-.45.43-.78.85-.33.42-.56.68-.69.78-.08.16-.18.45-.31.86-.13.41-.24.7-.31.86l-.82-1.04-.04.34c-.01.11-.05.19-.11.24l-.09.07-.23.49c-.08.16-.15.27-.21.32.09.24.23.58.43,1.04.2.45.35.74.45.87.01-.11.16-.28.44-.5s.48-.33.59-.32c.13-.1.37-.17.75-.21.37-.04.61,0,.71.13s.12.44.06.95c-.06.51-.12.78-.18.83.1.13.2.45.31.98.11.53.16.85.14.96.04.18,0,.43-.09.76-.1.33-.12.53-.07.59l-.38.3-.47.37c-.11-.01-.49.18-1.13.59-.64.41-1.05.63-1.23.67-.06.05-.24.22-.53.49-.29.28-.49.41-.6.4-.05-.06-.2-.09-.46-.1-.26,0-.43-.06-.53-.19l-1.71-2.17c-.1-.13-.41-.29-.92-.49-.52-.2-.86-.34-1.02-.42l-.52-.66-.52-.66c-.1-.13-.2-.38-.3-.76-.1-.38-.2-.63-.3-.76.01-.11-.06-.36-.21-.75-.15-.39-.28-.64-.38-.77l.4-.47.26-.05.19-.15c.13-.1.3-.16.53-.19.23-.03.38-.07.44-.12-.04-.17-.17-.53-.39-1.07-.22-.54-.38-.87-.48-1-.05-.06-.24-.14-.57-.24-.33-.09-.52-.18-.57-.24s-.09-.41-.13-1.04c-.04-.63-.05-1-.04-1.12-.05-.06-.23-.2-.55-.41-.32-.21-.59-.32-.81-.35-.17.04-.32.05-.43.04l-.34-.04-.15-.19-.3-.38c-.05-.06-.04-.17.04-.34.08-.16.14-.27.21-.32.08-.16.22-.4.43-.72s.32-.53.33-.65l-.3-.38-.3-.38c-.11-.01-.32-.02-.63-.03-.31,0-.49-.04-.54-.11-.11-.01-.19-.05-.24-.11l-.15-.19-.13-.36c-.1-.13-.27-.4-.5-.83-.23-.43-.37-.73-.41-.9-.05-.06-.1-.23-.16-.49-.05-.26-.1-.48-.14-.66.16.08.52.12,1.09.13.57.01.96.03,1.19.05l.38-.3.38-.3c-.15-.19-.31-.49-.49-.91-.18-.42-.29-.72-.32-.89l-.02-.6c.07-.56.07-.88.02-.94-.14-.3-.45-.76-.94-1.39s-.85-1.01-1.06-1.15c.21-.37.25-.66.1-.84.01-.11.01-.24,0-.39-.01-.14,0-.33.02-.55.03-.22.02-.42-.01-.6-.05-.06-.21-.17-.47-.31-.27-.15-.43-.25-.48-.31-.11-.01-.37-.14-.76-.39-.4-.24-.65-.43-.75-.56l-.3-.38-.22-.28c.05.06.16.08.34.04.17-.03.29-.08.36-.13.22.03.62.02,1.2-.03.57-.05.92-.06,1.03-.05l.19-.15.38-.3c-.04-.18,0-.4.08-.68.09-.27.17-.49.25-.66-.1-.13-.37-.4-.8-.82-.43-.42-.64-.74-.61-.97-.05-.06-.11-.2-.17-.4-.06-.21-.12-.34-.17-.4s-.1-.15-.14-.27c-.04-.12-.09-.21-.14-.27l-.32-.21-.41-.13c-.18.04-.31,0-.41-.13l.85-.67c.08-.16.11-.41.09-.76-.02-.34-.02-.57,0-.69-.05-.06-.21-.47-.5-1.21-.28-.75-.47-1.18-.57-1.31s-.21-.42-.32-.89c-.12-.47-.16-.82-.13-1.04l.04-.34c.01-.11,0-.2-.05-.26l1.83.39.06-1.28-3.12-3.96.27-.83c.25-.2.48-.17.67.08.16.08.46.3.9.66.44.37.73.64.88.83l1.11,1.41c.2.25.42.28.67.08l.09-.07.38-.3c.01-.11-.02-.29-.11-.53-.09-.24-.15-.39-.2-.45-.04-.17-.24-.5-.61-.97s-.64-.74-.8-.82c.12-.1.23-.29.32-.56.09-.28.16-.44.23-.49.04-.34.12-.56.25-.66l-.15-.19-.15-.19c-.18.04-.39.08-.66.14-.26.05-.46.13-.58.23-.05-.06-.15-.09-.29-.08-.14.01-.27.01-.38,0-.16-.08-.55-.15-1.17-.22-.62-.07-.95-.14-1-.2l-.67-.08-.37-.47-.52-.66c-.05-.06-.04-.15.03-.25.07-.11.11-.21.12-.33-.04-.17.04-.57.22-1.17.18-.61.29-1.02.32-1.25.13-.1.16-.28.11-.54-.05-.26-.11-.43-.16-.49.06-.05.1-.13.11-.24.03-.22.07-.36.13-.41-.1-.13-.2-.38-.29-.76-.1-.38-.17-.6-.22-.67-.1-.13-.21-.29-.32-.51-.12-.21-.2-.35-.25-.41.25-.2.39-.41.42-.64.09-.27.24-.63.46-1.06.22-.43.31-.68.26-.74l-2.23-2.83c-.2-.25-.2-.45-.02-.6.08-.16.29-.33.66-.52.36-.18.58-.3.64-.35l-1.34-1.7c.31-.25.49-.54.53-.88.19-.15.26-.41.22-.79-.04-.37-.08-.65-.12-.83l-.71-.51c-.11-.01-.24-.11-.39-.3.06-.05.2-.23.41-.55.21-.32.32-.53.33-.64-.05-.06-.12-.28-.22-.67-.1-.38-.13-.68-.11-.91l-.15-.19-.15-.19c-.05-.06-.22-.18-.51-.36-.29-.18-.58-.38-.87-.62-.29-.23-.54-.46-.77-.69-.23-.22-.37-.37-.42-.43-.1-.13-.15-.44-.14-.96,0-.51-.01-.86-.05-1.03l.85-.67c-.1-.13-.17-.28-.2-.45-.04-.17-.04-.37-.01-.6.08-.16.19-.43.35-.81.16-.38.22-.66.18-.83.12-.1.2-.29.24-.57l.09-.76c.15.19.47.37.96.54.49.17.82.24,1,.2.22.03.52-.11.9-.41s.58-.56.6-.79l6.8-2.03c.1.13.29.21.57.24.28.03.5.09.66.16.05.06.13.1.24.11.11.01.2,0,.26-.05.17-.04.47-.24.88-.62.41-.38.65-.59.71-.64.05.06.13.1.24.11.22.03.37.02.43-.04s.12-.04.17.02c-.13.1-.27.24-.43.42-.16.18-.23.36-.19.53-.13.1-.16.28-.11.54.05.26.11.43.16.49.04.18.06.49.06.95,0,.46.03.72.08.78s.17.25.36.56c.19.31.34.52.44.65.15.19.37.44.68.76.3.32.48.51.53.58.1.13.32.31.66.55.34.24.59.4.75.47.11.01.24.04.37.09s.26.07.37.09l.85-.67c.1.13.43.35.99.67.56.32,1.02.59,1.4.81.11.01.27.09.48.23.21.14.37.22.48.23.05.06.26.17.64.33.38.16.65.28.81.35l.41.13c.1.13.41.36.94.71.53.35.95.65,1.26.92l.52.66c.1.13.38.39.85.78s.75.66.85.78l.17.02c.11.01.18.04.21.07s.09.06.21.07c.16.08.35.13.58.15.16.08.5.37,1,.89s.84.81,1,.89c.1.13.38.23.86.31.47.09.73.16.78.22l1.71,2.17c.05.06.21.14.48.23.27.09.44.11.5.06.16.08.62.12,1.39.12.77,0,1.23.05,1.39.12l.15.19.07.09c-.01.11-.12.3-.32.56-.2.26-.31.45-.32.56l.22.28.3.38c.11.01.29.08.53.19.24.11.45.15.63.12l.34.04.34.04c.16.08.47.24.92.49s.76.42.92.49c.06-.05.15-.07.26-.05.22.03.37.02.43-.03.22.03.42.02.6-.02.16.08.52.41,1.08.98.56.58.95.88,1.17.91.05.06.36,0,.92-.19.56-.19.93-.3,1.1-.34.11.01.27.15.46.4.1.13.19.31.28.55.2.25.45.25.77,0l.28-.22c.11.01.25.03.42.05.17.02.28.06.33.12-.24.6-.45,1.05-.63,1.34s-.38.74-.62,1.34c.05.06.08.14.1.23.02.09.05.17.1.23l.15.19c.05.06.13.1.24.11l.67.08c.17-.04.46,0,.84.1.39.1.69.17.91.19-.04-.17-.08-.45-.12-.83-.04-.37-.03-.64.05-.81-.05-.06-.05-.19,0-.39.05-.19.11-.31.17-.36.02-.23.1-.39.23-.49.1.13.26.36.47.7.22.34.37.57.47.7-.01.11,0,.26.04.43-.01.11.03.23.13.36l.07.09.22.28.07.09c.1.13.23.23.39.3.16.08.3.12.41.14l.52.66.59.75c.1.13.51.26,1.23.4.72.14,1.12.39,1.19.74-.06.05.08.07.42.05.34-.02.54,0,.59.07l.22.28.3.38c.16.08.57.34,1.23.79s1.17.78,1.55.99c.1.13.16.59.18,1.39.02.8.08,1.26.18,1.39.12-.1.29-.31.5-.63.21-.32.37-.53.5-.63.11.01.3.06.58.15.27.09.47.14.58.15.2.25.42.28.67.08.1.13.27.15.51.06l.52-.11c.05.06.1.07.17.02l.19-.15c.11.01.2,0,.26-.05.1.13.44.4,1.01.8.58.41,1,.66,1.28.75.21.14.46.27.76.39.3.12.47.21.52.27.15.19.42.43.81.74.39.3.81.64,1.25,1,.44.37.83.7,1.16.99.33.3.55.51.65.63.16.08.37.31.64.72.26.4.42.64.47.7s.2.15.44.27.39.15.46.1l.37.47.22.28c-.01.11-.26.61-.73,1.5-.47.89-.69,1.42-.65,1.59.05.06.1.22.16.49s.05.42-.01.47c-.08.16-.23.42-.47.76-.24.34-.39.54-.45.59l-.23.49c-.17.44-.3.59-.39.47-.18.04-.32.05-.43.04-.18.04-.43-.02-.75-.17-.11-.01-.29-.05-.54-.11-.25-.06-.43-.09-.54-.11l-.15-.19-.3-.38ZM137.15,289.21l.4-.47c.25-.2.28-.42.08-.68l-.13-.36c-.05-.06-.1-.1-.16-.1-.06,0-.11-.04-.16-.1l-.07-.09c-.1-.13-.34-.17-.71-.13-.37.04-.62.06-.73.04l1.48,1.89ZM138.78,291.28l.47-.37-.3-.38-.47.37.3.38ZM136.54,284.94c-.19.15-.21.32-.06.51s.32.21.5.06.21-.32.06-.51-.32-.21-.5-.06ZM125.01,263.9c-.19.15-.2.33-.02.55s.35.26.54.11c.25-.2.29-.41.12-.63s-.39-.23-.63-.03ZM130.95,271.45c.01-.11.01-.24,0-.38-.01-.14,0-.33.02-.55l-.15-.19-.47.37.59.75ZM126.89,265.32c-.05-.06-.07-.15-.05-.26l.04-.34-.05-.26-.32-.21c-.06.05-.15.07-.26.05-.11-.01-.19-.05-.24-.11l.89,1.13ZM129.34,268.44c.15.19.32.21.5.06.11.01.26-.05.45-.2l.19-.15-.3-.38-.85.67ZM138.34,276.77c-.05-.06-.09-.18-.13-.36-.04-.17-.08-.29-.13-.36l.02-.17c-.05-.06-.06-.11-.03-.13s.02-.07-.03-.13c.03-.22.12-.53.28-.91.16-.38.27-.65.35-.81-.05-.06.06-.28.33-.65.27-.37.47-.6.59-.7.06-.05.13-.13.2-.23.07-.11.13-.18.2-.23.15.19.21.4.18.62.15.19.13.36-.06.51-.01.11-.17.37-.47.76s-.43.62-.38.68c-.31.25-.49.54-.53.88-.01.11-.04.24-.09.37-.04.14-.07.27-.09.38l.15.19.22.28c.11.02.31.11.61.29.29.18.49.27.6.28l-.19.15-.28.22c-.05-.06-.17-.15-.35-.25-.19-.11-.33-.22-.43-.35-.11-.01-.19-.05-.24-.11-.11-.01-.22-.08-.32-.21ZM133.52,269.87c.21-.37.15-.78-.2-1.22-.06.05-.15.07-.26.05-.06.05-.12.07-.18.06-.06,0-.12.02-.18.06l.82,1.04ZM126.03,256.67c.05.06.02.22-.1.46-.11.24-.15.4-.1.46-.06.05-.07.11-.02.17s.04.12-.02.17l.75-.6-.52-.66ZM135.48,264.79c-.19.15-.18.35.02.6s.39.3.58.15c.13-.1.09-.27-.11-.53s-.36-.33-.49-.23ZM131.85,252.04c.05.06.23.2.55.41.32.21.59.33.81.35l.34.04c.11.02.2,0,.26-.05l.75-.6.75-.6c.01-.11,0-.26-.04-.43-.04-.17-.03-.3,0-.39.04-.08,0-.18-.09-.31-.05-.06-.23-.38-.53-.96-.3-.58-.5-.93-.6-1.06l.02-.94-.44-.57-.45-.57c-.11-.01-.31-.11-.61-.28-.29-.18-.52-.3-.68-.38-.2-.25-.39-.3-.58-.15.05.06.1.23.16.49.05.26.02.45-.11.54.02.29-.04.95-.19,1.99-.15,1.04-.3,1.72-.45,2.04l.59.75.52.66ZM129.5,248.09l.47-.37c-.06.05-.12.04-.17-.02l-.15-.19-.34-.04-.34-.04.52.66ZM120.6,236c-.19.15-.18.35.02.6s.39.3.58.15c.13-.1.09-.28-.11-.53s-.36-.33-.49-.23ZM124.29,234.3c-.19.15-.18.35.02.6s.39.3.58.15.18-.35-.02-.6-.39-.3-.58-.15ZM142.77,257.78l.38-.3-.3-.38-.38.3.3.38ZM136.51,248.65c-.03.23-.01.37.03.43l.67.85.59.75c.25-.2.3-.39.15-.58-.1-.13-.22-.41-.37-.86-.15-.44-.24-.7-.3-.76s-.19-.11-.41-.13l-.34-.04-.04.34ZM145.65,244c.11.01.25,0,.43-.04.17-.04.32-.1.45-.2.11.01.26-.03.44-.12.18-.09.36-.16.53-.19.24-.09.45-.2.64-.35l1.22-.97,1.6-1.27c.06-.05.36-.38.88-1.01.53-.62.89-1.01,1.07-1.16.12-.1.57-.35,1.32-.74.76-.4,1.17-.62,1.23-.67l.85-.67c-.1-.13-.38-.44-.83-.95-.45-.51-.79-.78-1.01-.8-.15-.19-.61-.41-1.37-.67-.76-.26-1.32-.41-1.65-.45-.05-.06-.24-.11-.58-.15-.34-.04-.59-.04-.77,0-.16-.07-.46-.22-.89-.45-.43-.22-.75-.34-.98-.37-.18.04-.41-.06-.69-.29-.29-.23-.45-.38-.5-.44-.11-.01-.41-.06-.88-.15-.47-.08-.73-.16-.78-.22-.11-.01-.4-.15-.85-.4-.45-.25-.96-.51-1.53-.78-.57-.26-1.14-.55-1.73-.85-.59-.3-1.05-.52-1.37-.67-.1-.13-.61-.41-1.52-.86-.91-.45-1.53-.8-1.83-1.07-.16-.07-.35-.18-.56-.32l-.63-.42-.48-.23c-.16-.07-.29-.18-.39-.3s-.41-.39-.93-.79c-.52-.4-.81-.64-.86-.7-.11-.01-.33-.1-.65-.25-.16-.08-.33-.1-.5-.06l-.52-.66c-.16-.07-.37-.11-.63-.12-.26,0-.47.02-.64.05l-.26.06c-.06.05-.07.11-.02.17.04.18.14.53.3,1.06.17.53.3.86.4.99l.22.28.15.19c.05.06.23.1.54.11.31,0,.49.04.54.11.1.13.24.34.44.65.19.31.34.47.45.48.1.13.23.23.39.3l.49.23.96,1.23,1.04,1.32c-.11-.01-.35.04-.7.17-.36.13-.62.21-.8.25l-.56.45.3.38c.1.13.2.2.32.21.22.03.51.1.87.23.35.13.61.23.77.3l-.09.07-.19.15c-.18.04-.56.13-1.14.29-.59.16-.97.26-1.14.29l-.19.15-.19.15-.04.34c-.01.11,0,.2.05.26l-.28.22-.19.15c-.18.04-.37-.01-.58-.15-.21-.14-.34-.24-.39-.3l-1.22.97,1.27.83c.11.01.48-.1,1.1-.34.62-.24.99-.35,1.11-.34l.89,1.13c.1.13.33.25.68.38.35.13.62.17.79.14l-.04.34-.04.34c.1.13.29.56.57,1.31.28.75.41,1.23.38,1.46l-.04.34-.04.34c.04.18.05.32.04.43.04.18.03.31,0,.39-.04.08-.03.15.02.22.04.18.11.43.21.75.1.33.18.52.23.58-.19.15-.38.1-.58-.15-.16-.08-.4-.35-.72-.81-.31-.46-.52-.76-.62-.89s-.29-.2-.57-.24c-.28-.03-.45-.02-.52.03-.01.11-.04.31-.07.59s-.09.5-.16.67c-.01.11.03.26.12.44.09.18.16.31.21.37.04.18.13.36.28.55l.67.85c.1.13.29.34.57.62.28.29.44.47.49.53.1.13.34.4.72.81.38.42.65.66.81.74l-.36-2.01.38-.3c.05.06.17.15.35.26.19.11.33.22.43.35.04.18.11.5.23.97.12.47.2.74.25.8l.22.28.15.19c.34.04.59.04.77,0,.22.03.42.02.6-.02l3.57-2.83c.05.06.16.08.34.04.17-.04.29-.08.36-.13.12-.1.23-.23.3-.39.15-.32.26-.51.32-.56ZM118.89,220.66l-.22-.28-.56.45.79-.16ZM129.67,231.25l.25-.66-.47.37.22.28ZM145.31,244.73c-.13.1-.1.26.07.48s.32.28.45.18c.31-.25.38-.48.21-.7s-.42-.21-.73.04ZM152.45,242.74c-.15-.19-.32-.21-.5-.06s-.21.32-.06.51c.34.04.52-.11.56-.45ZM158.27,238.12c-.09-.24-.21-.29-.36-.17s-.16.28-.01.47c.23.03.35-.07.38-.3ZM157.3,236.89c-.19.15-.17.37.05.65s.43.35.62.2.17-.36-.05-.65-.43-.35-.62-.2Z"/>
  <path d="M266.78,198c.02-.16.04-.33.07-.49-.34-.7-.72-1.39-1.15-2.08-.57-.91-1.06-1.82-1.47-2.74-.41-.92-.56-1.85-.45-2.78.02-.14.06-.32.14-.53.08-.21.12-.35.13-.42l1.62-.46.48-3.98c0-.07.15-.2.44-.38.28-.18.43-.31.44-.38-.24-.61-.52-1.12-.83-1.52-.32-.4-.61-.78-.88-1.14-.27-.36-.49-.75-.64-1.17-.16-.42-.2-.99-.11-1.7.04-.36.12-.59.24-.68.12-.1.59-.09,1.41,0-1.12-.21-1.96-.64-2.51-1.29-.55-.65-.91-1.36-1.07-2.15-.17-.78-.18-1.55-.04-2.3.14-.75.34-1.32.6-1.73-.2-.1-.43-.33-.7-.69-.27-.36-.5-.62-.69-.79l.05-.43c.22-.12.51-.32.86-.6.35-.29.63-.45.84-.5l.26-2.15c.1-.86.17-1.63.2-2.32.03-.69-.15-1.56-.54-2.63.81.17,1.38.04,1.69-.39.31-.43.49-.87.55-1.3-1.85-.22-3.58-.22-5.17.03-1.6.24-3.43.28-5.5.1-.21-.03-.41-.1-.6-.24-.19-.13-.28-.27-.26-.41.03-.29.15-.82.35-1.59.2-.78.31-1.27.34-1.49.2.02.43.13.67.3.24.18.47.24.68.19.22-.12.67-.34,1.33-.66.67-.32,1.1-.5,1.32-.55.16.38.31.89.44,1.53.13.63.11,1.2-.05,1.69l1.51-.8c.55-.22,1.38-.36,2.48-.41,1.1-.05,1.67-.21,1.71-.5.06-.5.01-1.18-.15-2.04-.16-.85-.37-1.74-.62-2.64-.26-.9-.52-1.75-.79-2.55-.27-.8-.43-1.42-.48-1.86-1.27-.74-2.3-1.3-3.09-1.68-.79-.39-1.53-.75-2.22-1.09-.69-.34-1.09-.51-1.19-.53s-.18,0-.24.03c-.06.03-.14.04-.24.02-.25.33-.65.85-1.2,1.55-.55.7-1.12,1.3-1.71,1.81l-1.08-1.44-.99-4.81c.02-.14-.18-.24-.59-.29-.52-.06-1.03.08-1.54.41-.51.34-.98.74-1.4,1.2-.42.46-.81.88-1.17,1.28-.36.39-.6.62-.71.68-.11.06-.36.19-.75.4-.39.21-.83.43-1.33.66-.5.23-.94.45-1.33.66-.39.21-.59.35-.6.42-.11.06-.31.44-.6,1.13-.29.69-.51,1.21-.66,1.56l-.13,1.08c-.02.14,0,.49.03,1.04.04.55.07,1.14.1,1.76.03.62.06,1.21.1,1.76.04.55.05.86.04.93l-.08.65c-.11.93-.35,1.36-.7,1.28-.36-.08-.9-.16-1.62-.25l.23-1.94-.93-.11c-.12,1.01-.38,1.63-.77,1.87-.4.24-.8.38-1.22.4-.42.02-.81.01-1.17-.03s-.57.19-.63.69c-.04.36.06.77.32,1.24.26.47.69.74,1.31.81.2.02.74-.09,1.61-.35.86-.26,1.4-.41,1.62-.46l.17-.09c.21.03.43.32.68.9.24.58.5,1.23.78,1.95.28.73.61,1.44,1,2.14.39.7.82,1.23,1.3,1.58l-.7,5.81c-1.03-.13-1.7-.39-2.02-.79-.32-.4-.89-.65-1.71-.75-.52-.06-.81-.21-.89-.44-.08-.23-.1-.48-.06-.77s-.01-.55-.14-.78c-.13-.23-.4-.38-.81-.43l-.46-.06-2.39-.94c.12-.13.3-.36.55-.7.25-.33.38-.57.4-.71,0-.07.05-.21.13-.42.08-.21.12-.35.13-.42-1.44-.17-2.67.21-3.66,1.14-1,.93-1.81,2.04-2.43,3.31-.62,1.27-1.11,2.5-1.46,3.7-.36,1.19-.61,2-.76,2.42-.12.13-.35.32-.7.57-.34.25-.69.54-1.04.86-.35.32-.7.61-1.04.86-.34.25-.52.41-.53.48-.47.45-1.02,1.13-1.66,2.04-.63.91-1.34,1.8-2.13,2.69-.79.89-1.61,1.66-2.47,2.32-.86.66-1.71.94-2.53.84-.1-.01-.18-.04-.23-.08-.05-.04-.13-.07-.23-.08-.68-1.32-1.18-2.98-1.52-4.99s-.58-4.09-.74-6.25c-.16-2.16-.19-4.24-.11-6.23.08-1.99.25-3.59.5-4.8-.89-.4-1.47-1.01-1.74-1.85-.27-.83-.37-1.72-.31-2.66.06-.94.19-1.83.4-2.68.2-.85.33-1.45.37-1.81-.88-.54-1.68-1.28-2.4-2.2-.73-.92-1.04-1.78-.94-2.57s.28-1.51.57-2.17c.29-.66.48-1.38.57-2.17.1-.86-.03-1.69-.4-2.5-.37-.81-.8-1.62-1.27-2.45-.48-.82-.9-1.64-1.27-2.45-.37-.81-.51-1.64-.4-2.5-.1-.01-.21.01-.32.07-.12.13-.29.22-.5.27-.43.09-.7.13-.8.12-.22.05-.78-.02-1.7-.21-.92-.18-1.49-.25-1.7-.21l-.83,1.65c-.11.06-.52,0-1.23-.2-.71-.2-1.17-.23-1.4-.12-.22.05-.42.26-.62.63-.2.38-.27.68-.19.9.73.02,1.35.05,1.86.12s.95.15,1.3.27c.35.12.57.29.64.51-.28.55-.99.84-2.14.89-1.15.04-2.09.02-2.81-.07-.06.5.03,1.04.28,1.62.24.58.33,1.15.26,1.72l-.17,1.4-1.29-2.34-.31-.04c-.41-.05-.88.17-1.41.65-.53.48-1.01,1.02-1.45,1.62-.44.6-.8,1.2-1.08,1.78-.28.58-.43.95-.44,1.09-.15,1.22-.17,2.47-.06,3.76.11,1.29.09,2.54-.06,3.76l-.77-.09c-.05-.44-.12-.98-.2-1.61-.08-.63-.35-1.22-.8-1.79-.53,0-1.06.53-1.6,1.55-.54,1.02-1.1,2.18-1.67,3.45-.57,1.28-1.06,2.51-1.46,3.7-.4,1.19-.63,1.96-.67,2.32-.02.14-.09.52-.21,1.12-.13.6-.28,1.28-.48,2.02-.2.74-.38,1.43-.56,2.06-.18.63-.28,1.02-.3,1.16l-.08.65c-.02.14,0,.45.04.93.04.48.09.99.13,1.54.04.55.05,1.08.04,1.59,0,.51-.02.8-.03.87-.02.15-.02.35,0,.6.02.26.02.46,0,.6s-.06.25-.12.31-.1.17-.12.31l-.04.32c-.02.15-.33.6-.95,1.36-.62.76-.93,1.21-.95,1.36s.07.5.26,1.07c.19.57.29.89.28.96l-.05.43c-1.03-.13-1.63-.14-1.8-.06-.17.09-.68-.17-1.55-.79-.84,1.79-1.3,3.39-1.36,4.8-.07,1.41-.22,3.12-.46,5.13l-2.93-.36c-.11.93-.45,1.8-1.02,2.6-.57.81-1.16,1.6-1.78,2.4-.62.8-1.18,1.59-1.69,2.36-.51.78-.82,1.63-.93,2.56-.08.65-.09,1.39-.03,2.23.06.84.48,1.42,1.28,1.74l1.81-.76c0,.8.16,1.45.47,1.97.3.51.69.96,1.17,1.34.48.39,1.03.78,1.66,1.18.63.4,1.32.9,2.09,1.51,0,.07.04.11.14.13l.31.04c.51.06.87-.08,1.07-.42s.35-.72.45-1.14c.1-.42.26-.84.46-1.25s.63-.69,1.27-.83c-1-.41-1.45-.94-1.38-1.58s.48-1.38,1.2-2.2c.73-.82,1.48-1.66,2.26-2.51.78-.85,1.54-1.7,2.27-2.56.73-.86,1.13-1.61,1.21-2.25.04-.36-.11-.65-.44-.87-.34-.22-.47-.66-.39-1.3.05-.43.22-.74.5-.92.28-.18.62-.36,1.01-.53.39-.17.72-.35,1-.53.28-.18.45-.45.49-.81s-.37-.66-1.22-.91c-.86-.25-1.24-.77-1.14-1.56.08-.65.28-1.04.61-1.18.33-.14.71-.24,1.13-.3.42-.06.87-.11,1.35-.16.47-.05.89-.27,1.26-.67.03-.29.18-.81.43-1.58.25-.77.5-1.59.77-2.47.26-.88.52-1.68.76-2.42s.44-1.27.59-1.62l.97-1.52.31.04,2.5.08c.89.4,1.59.68,2.09.85.5.17,1.14.45,1.94.84l-4.35-.31c1.03,1,1.43,1.81,1.2,2.44s-.41,1.44-.53,2.44c-.62-.07-1.17-.21-1.67-.42-.5-.21-1-.34-1.52-.4-.06.5.4.98,1.4,1.42.99.45,2.03.88,3.13,1.31.9.33,1.67.64,2.32.94.64.3.94.62.9.98-.03.29-.37.48-1.01.59-.64.11-1.33.21-2.07.3-.74.09-1.43.19-2.07.29-.64.1-.98.3-1.01.58-.07.58.33.93,1.2,1.07.87.14,1.54.42,2.01.84l4.45.76c.21.03.19.15-.05.38-.24.23-.53.48-.87.77-.35.28-.7.59-1.05.91-.35.32-.49.56-.4.72.24.61.63,1.26,1.18,1.94.54.68.94,1.33,1.18,1.94.14.53.21,1.04.21,1.55-.01.51.11,1.03.36,1.57l-.04.32c-.03.29-.18.43-.45.44-.26,0-.58.02-.95.05-.37.03-.69.08-.96.16-.27.08-.43.29-.47.65-.03.29.03.59.21.9.76-.27,1.92-.53,3.46-.78,1.54-.25,2.68-.33,3.4-.24l.46.06c.29.18.79.62,1.49,1.33.7.7,1.14,1.14,1.33,1.31.44.64.61,1,.49,1.09-.12.1.14.18.75.26.51.06.94.02,1.27-.12.33-.14.66-.3,1-.48.34-.18.69-.34,1.07-.47.38-.13.83-.17,1.35-.11.1.01.15.04.15.07,0,.04.05.06.15.07l.15.02c.2.1.49.29.87.6.38.3.61.53.7.68.28-.62.66-1.41,1.15-2.37.48-.96,1.11-1.83,1.88-2.61.77-.78,1.68-1.36,2.72-1.74,1.04-.38,2.25-.31,3.66.22.13-.27.4-.7.78-1.27.38-.57.79-1.18,1.24-1.81.44-.64.83-1.26,1.17-1.88.33-.61.52-1.1.57-1.46.08-.65-.15-1.15-.68-1.5-.53-.35-.77-.78-.71-1.29.03-.29.26-.66.68-1.12.42-.46.9-.93,1.43-1.41.53-.48,1-.99,1.44-1.52.43-.53.67-1.05.73-1.55.05-.43-.09-.74-.44-.92-.34-.19-.69-.36-1.04-.51-.35-.15-.69-.34-1.03-.56-.34-.22-.47-.66-.39-1.3.2.02.59.09,1.15.19.56.1.94.17,1.15.19l4.87-.07c-.19-.17-.25-.52-.19-1.06s.21-.9.45-1.09c.12-.13.49-.18,1.11-.14.62.04.99,0,1.11-.14,0-.07.14-.29.39-.66.25-.37.39-.62.41-.77l.99-.43c-.82-.17-1.35-.47-1.62-.91-.26-.43-.37-.86-.32-1.29l.03-.22c.22-.05.83-.19,1.85-.43,1.02-.24,1.71-.52,2.06-.84.06.37.18.86.37,1.46.19.61.43,1.23.71,1.89.29.65.63,1.28,1.03,1.87s.85.99,1.34,1.2c-.65,2.76-.95,5.67-.89,8.73.05,3.06.7,5.91,1.95,8.53.14.6.5,1.04,1.09,1.33.59.29.85.76.77,1.4-.07.57-.28,1.04-.64,1.4-.35.36-.56.75-.61,1.18-.07.58.34,1.06,1.23,1.46.42.19.73.41.93.65,3.44-1.75,7.67-1.9,10.93.35,1.18-3.28,3.67-5.36,6.54-6.31ZM194.36,171.77c-.2-.1-.51-.33-.93-.71-.42-.38-.82-.81-1.18-1.29-.36-.48-.67-.94-.93-1.37-.26-.43-.38-.72-.37-.86,0-.07.11-.28.31-.62.2-.34.42-.67.67-1.01.25-.33.54-.63.89-.87.34-.25.62-.4.84-.44l.7,7.18ZM191.56,163.79l.77.09-.08.64-.7-.74ZM194.09,149.26l.62.07-.68.46.06-.54ZM192.56,161.95l-.77-.09.05-.43.77.09-.05.43ZM192.07,145.19c.72.09,1.22.31,1.49.67.27.36.38.75.33,1.19l-2.01-.24.19-1.61ZM189.5,174.34c-.2-.1-.38-.32-.55-.67-.17-.35-.24-.59-.23-.74,0-.07.13-.24.37-.5.24-.26.51-.52.8-.78.29-.25.55-.5.79-.72.23-.23.4-.33.51-.32l3.3,3.78-5.01-.06ZM194.4,187.05l-.85-.76.93.11-.08.64ZM208.78,166.53l-.08.65-.7-.74.77.09ZM205.28,151.92c.38-.1.82-.12,1.34-.06l-.3,2.47c-.62-.08-1.06-.31-1.33-.71-.27-.4-.38-.77-.33-1.13.03-.29.24-.48.62-.58ZM201.75,176.7l1.85.22c-.14.28-.38.55-.73.84-.35.29-.78.4-1.29.33l.17-1.4ZM198.51,182.8c-.94-.88-1.76-1.67-2.46-2.37-.7-.7-.95-1.04-.74-1.02,1.13.14,2.3.59,3.52,1.36,1.21.76,2.26,1.58,3.15,2.46.89.87,1.47,1.64,1.76,2.29.29.65.07.93-.65.85-.21-.03-.79-.4-1.74-1.14-.96-.73-1.91-1.54-2.84-2.42ZM203.85,196.38c-.7.13-2.19-.66-4.49-2.4.07-.57.46-1.02,1.18-1.33.72-.31,1.35-.62,1.91-.91l-.08.64c1.68,2.53,2.17,3.86,1.48,4ZM206.39,172.03c.07-.57.43-.97,1.08-1.18l.71.63c-.47.45-1.07.63-1.79.55ZM205.87,198.48l-.93-.11.08-.64.93.11-.08.64ZM220.27,182.98c-.52-.06-.75-.26-.71-.58s.31-.45.83-.39.75.26.72.58-.32.45-.83.39ZM224.93,176.78l-.06.54-1,.53,1.07-1.07ZM221.02,191.04l.22-1.83.77.09c.1.01.17.09.21.24.03.15.1.23.21.24l.12.34c-.09.72-.59,1.02-1.52.91ZM223.34,196.56l-.77-.09.83-.34-.05.43ZM231.05,179.38c-.52-.06-.75-.31-.69-.74s.33-.61.85-.55.75.31.69.74-.33.61-.85.55ZM232.82,178.94l.08-.65.62.07-.69.57ZM233.89,175.25l1.01-.53.85.76-1.85-.22ZM238.4,171.6c-.18.6-.68.85-1.5.75l-.14-.13c0-.07-.04-.33-.14-.78s-.2-.75-.28-.91c0-.07,0-.18-.04-.33-.04-.15-.05-.26-.04-.33l2.47.3c-.04.36-.15.84-.33,1.43ZM248.1,183.52l.19-1.61.15.02c.62.08.98.3,1.1.68.11.38.14.75.1,1.1l-1.54-.19ZM253.46,148.06c1.85.22,3.21.44,4.07.66.86.21,1.22.93,1.07,2.15-1.14-.14-2.3-.39-3.51-.75-1.21-.36-1.75-1.05-1.63-2.05ZM255.02,165.05l-.69-.74.84-.44-.14,1.18ZM257.63,164.17c-.32.03-.44-.25-.36-.86s.26-.86.56-.75c.19.17.26.45.21.84s-.18.65-.41.77ZM259.33,161.75c-.31-.04-.66-.17-1.05-.4-.39-.23-.56-.52-.52-.88l1.7.21-.13,1.08ZM259.46,167.22c-.41-.05-.6-.25-.55-.61s.27-.51.68-.46c.51.06.75.27.71.63s-.32.51-.84.44ZM262.23,178.04c-.52-.06-.75-.25-.71-.58s.31-.45.83-.39c.31.04.44.22.41.54s-.21.47-.52.43ZM262.7,185.84c1.24.15,1.79.73,1.67,1.73-.52-.06-1.07-.24-1.66-.53-.59-.29-.85-.72-.78-1.3l.77.09Z"/>
  <path d="M206.72,118.5l.93.65c0-.07.02-.13.08-.16.05-.04.08-.09.08-.16l-.16-.22v-.11c0-.07-.11-.16-.31-.27-.21-.11-.41-.2-.62-.27v.54Z"/>
  <path d="M224.3,143.41c0,.29.26.43.78.43v-.43l-.78-.65c0,.07-.03.13-.08.16-.05.04-.08.09-.08.16l.16.32Z"/>
  <path d="M246.39,158.15c-.21,0-.31.07-.31.22s.1.22.31.22c.41-.29.41-.43,0-.43Z"/>
  <path d="M268.32,141.57c-.31-.07-.47.02-.47.27s.16.34.47.27c.21-.07.31-.16.31-.27s-.1-.2-.31-.27Z"/>
  <path d="M183.29,280.03c0-.4.06-1.22.18-2.46.12-1.24.22-2.06.3-2.46.16.08.42.12.78.12s.62-.04.78-.12l.36-.96c.16-.16.46-.46.9-.9s.9-.9,1.38-1.38c.48-.48.92-.94,1.32-1.38.4-.44.68-.74.84-.9,0,.08.08.18.24.3.16.12.24.22.24.3s.08.32.24.72c.16.4.28.6.36.6,0,.08.04.12.12.12h.24c.16,0,.28-.02.36-.06.08-.04.16-.06.24-.06s.22-.06.42-.18.38-.18.54-.18l.96-.96c.08,0,.18.06.3.18l.3.3c.08.08.16.12.24.12h.72c.08,0,.2-.04.36-.12.08,0,.36-.08.84-.24l.72-.24h.96c.08,0,.34.14.78.42.44.28.7.46.78.54h1.44l.48-.48c.08-.08.4-.08.96,0,.56.08.92.08,1.08,0,.16-.16.3-.34.42-.54s.14-.38.06-.54h5.39c.08,0,.18-.12.3-.36s.18-.44.18-.6l-.24-.24-.24-.24c0-.08-.06-.3-.18-.66s-.22-.62-.3-.78c0-.16-.08-.5-.24-1.02-.16-.52-.24-.86-.24-1.02,0-.08-.06-.26-.18-.54-.12-.28-.24-.58-.36-.9-.12-.32-.22-.64-.3-.96-.08-.32-.12-.52-.12-.6s-.02-.2-.06-.36c-.04-.16-.06-.32-.06-.48v-.6c0-.16.04-.32.12-.48,0-.16.04-.42.12-.78.08-.36.16-.62.24-.78.24,0,.44-.04.6-.12l.48-.24c.08-.16.06-.42-.06-.78-.12-.36-.18-.62-.18-.78h-.24l-.48.24-.48.24v-4.45c0-.16-.1-.58-.3-1.26-.2-.68-.3-1.1-.3-1.26v-2.4c0-.08-.08-.32-.24-.72-.16-.4-.24-.64-.24-.72.08-.16.26-.44.54-.84.28-.4.46-.64.54-.72v-1.44l-1.08.96-.24-.24c-.08-.08-.12-.16-.12-.24-.08-.08-.1-.32-.06-.72.04-.4.06-.68.06-.84-.08-.16-.18-.74-.3-1.74-.12-1-.18-1.58-.18-1.74v-.36c0-.08.08-.28.24-.6.08-.16.16-.28.24-.36,0-.16-.02-.52-.06-1.08-.04-.56-.02-.88.06-.96,0-.08.1-.42.3-1.02.2-.6.38-1.1.54-1.5,0-.08.1-.24.3-.48.2-.24.3-.4.3-.48-.08-.08-.24-.24-.48-.48-.24-.24-.44-.4-.6-.48v-4.93c.16,0,.4.06.72.18s.56.18.72.18h.6l2.39-2.4v-.48l-.24-.24-.24-.24c-.08-.16-.08-.5,0-1.02.08-.52.08-.86,0-1.02l-.48-.48-.24-.12-.24.12c-.16.08-.34.24-.54.48-.2.24-.34.4-.42.48,0,.16-.06.42-.18.78-.12.36-.26.62-.42.78,0-.16-.06-.34-.18-.54-.12-.2-.18-.34-.18-.42-.08-.08-.18-.16-.3-.24-.12-.08-.22-.2-.3-.36l-.48-.24c-.16-.08-.28-.16-.36-.24h-.48c-.08,0-.3.02-.66.06-.36.04-.74.1-1.14.18-.4.08-.78.14-1.14.18-.36.04-.58.06-.66.06s-.38.04-.9.12c-.52.08-.9.12-1.14.12-.16,0-.42-.04-.78-.12-.36-.08-.58-.12-.66-.12l-.48-.96-.96.48v-1.92c-.08.16-.32.3-.72.42-.4.12-.68.14-.84.06,0-.16-.04-.32-.12-.48l-.36-.6c-.24,0-.44-.04-.6-.12-.24-.08-.52-.2-.84-.36h-.6c0,.08-.12.18-.36.3-.24.12-.4.18-.48.18,0-.08-.06-.24-.18-.48-.12-.24-.22-.36-.3-.36-.08-.08-.26-.18-.54-.3-.28-.12-.42-.22-.42-.3-.08,0-.2-.06-.36-.18-.16-.12-.24-.22-.24-.3s-.08-.22-.24-.42c-.16-.2-.24-.38-.24-.54-.16-.16-.4-.42-.72-.78-.32-.36-.56-.58-.72-.66,0-.16.14-.34.42-.54.28-.2.46-.38.54-.54h.48c.16.16.38.34.66.54.28.2.42.38.42.54v.84c.16.16.48.38.96.66.48.28.8.42.96.42.24,0,.36-.16.36-.48v-.6c0-.16-.2-.56-.6-1.2-.4-.64-.64-1.04-.72-1.2v-.48c0-.16.06-.42.18-.78.12-.36.22-.58.3-.66,0-.16.16-.32.48-.48.08-.08.4-.2.96-.36.56-.16.92-.24,1.08-.24.08-.16.2-.32.36-.48l.48-.48c.08,0,.26.1.54.3.28.2.46.26.54.18l.96-.96c.16-.16.42-.28.78-.36.36-.08.58-.12.66-.12.16.08.36.26.6.54.24.28.4.42.48.42h1.44c.08,0,.32-.12.72-.36.4-.24.68-.44.84-.6l.24-.24.24-.24h.48c.08.08.22.26.42.54.2.28.34.42.42.42.16,0,.52-.16,1.08-.48.56-.32.88-.48.96-.48h.96c.16,0,.44.14.84.42.4.28.64.46.72.54l.24.12c.08,0,.16-.04.24-.12.08-.08.34-.24.78-.48.44-.24.7-.4.78-.48h.48c.16.08.42.18.78.3.36.12.58.18.66.18.08.08.34.32.78.72.44.4.7.64.78.72l.24.12.24-.12.48-.24c.16-.08.28-.16.36-.24.08,0,.14.02.18.06.04.04.1.06.18.06,0-.08.04-.26.12-.54.08-.28.12-.46.12-.54l-.24-.24c-.08,0-.12-.02-.12-.06s-.04-.06-.12-.06-.12-.04-.12-.12l-.48-.96c0-.4.16-.6.48-.6.16.16.44.42.84.78.4.36.64.62.72.78.16.16.28.4.36.72.08.32.12.56.12.72.16-.08.34-.24.54-.48.2-.24.34-.4.42-.48.08-.08.18-.24.3-.48.12-.24.18-.44.18-.6h3.59c.16,0,.4.08.72.24.32.16.56.28.72.36.16.16.44.34.84.54.4.2.64.34.72.42v.48c-.08.24-.2.62-.36,1.14-.16.52-.24.82-.24.9-.08.08-.26.22-.54.42-.28.2-.42.38-.42.54v.96c.16-.08.42-.18.78-.3.36-.12.62-.18.78-.18.08-.08.24-.16.48-.24.24-.08.36-.16.36-.24l.48.96c.08-.08.18-.18.3-.3s.22-.18.3-.18v-.96c-.08,0-.2-.14-.36-.42-.16-.28-.24-.46-.24-.54v-2.04c.08-.08.24-.22.48-.42.24-.2.48-.38.72-.54h.36c.16,0,.36-.06.6-.18s.4-.26.48-.42c0-.08.06-.24.18-.48.12-.24.18-.4.18-.48.32,0,.48-.16.48-.48l.48.48c.16.16.36.5.6,1.02.24.52.4.86.48,1.02.08.08.16.18.24.3.08.12.16.18.24.18.08.16.18.4.3.72.12.32.18.56.18.72v2.04c0,.08-.2.22-.6.42-.4.2-.68.38-.84.54h-.6c-.08.16-.24.36-.48.6-.24.24-.4.4-.48.48v.96c.08.08.18.46.3,1.14.12.68.18,1.1.18,1.26v2.04c0,.32-.16.48-.48.48l-.36.12h-.36c-.08,0-.16-.04-.24-.12l-.48-.48c-.08-.08-.32-.2-.72-.36-.4-.16-.68-.24-.84-.24h-1.91c-.08,0-.24-.14-.48-.42-.24-.28-.4-.42-.48-.42s-.38.1-.9.3c-.52.2-.9.38-1.14.54-.08.16-.24.34-.48.54-.24.2-.4.38-.48.54l-.96-1.08-.48.6h-3.47c-.16,0-.34.24-.54.72-.2.48-.38.88-.54,1.2v2.04c0,.08.08.3.24.66.16.36.24.58.24.66.08.16.26.44.54.84.28.4.5.68.66.84l.36.36c.32.32.48.52.48.6v.96c.08.16.24.48.48.96.24.48.4.8.48.96v7.57c-.08.16-.24.46-.48.9-.24.44-.4.74-.48.9,0,.16-.06.5-.18,1.02-.12.52-.22.86-.3,1.02,0,.16-.02.44-.06.84-.04.4-.08.84-.12,1.32-.04.48-.08.94-.12,1.38-.04.44-.06.78-.06,1.02-.08,0-.2.06-.36.18-.16.12-.24.22-.24.3l-.12.24.12.24c0-.08.14-.18.42-.3.28-.12.46-.18.54-.18.32,0,.48.16.48.48v.36c0,.16-.08.6-.24,1.32-.16.72-.24,1.16-.24,1.32v2.88c.08.16.28.42.6.78.32.36.48.58.48.66,0,.16-.14.38-.42.66s-.5.42-.66.42v.48c.16.08.42.24.78.48.36.24.58.4.66.48.08.08.18.5.3,1.26.12.76.18,1.34.18,1.74v1.56c0,.16-.06.56-.18,1.2-.12.64-.22,1.04-.3,1.2l-.36.12h-.36c-.08,0-.16-.04-.24-.12l-.84-.36-.12-.12c-.08,0-.16-.04-.24-.12l-.24.24c-.16.16-.3.4-.42.72-.12.32-.18.52-.18.6.08.08.28.16.6.24.32.08.52.16.6.24.08.16.24.42.48.78.24.36.36.62.36.78v.96l2.99,3.01c.08,0,.24-.2.48-.6.08,0,.18-.22.3-.66.12-.44.18-.7.18-.78l.24-.12c.08,0,.16.04.24.12.16,0,.36.06.6.18.24.12.4.22.48.3h.48l1.44,2.04c0,.08.04.12.12.12h.24l.24-.12c0-.08.04-.12.12-.12l.24-.12.48-.24h1.08c.08,0,.32-.08.72-.24.4-.16.64-.28.72-.36h.6c0,.16.04.28.12.36l.24.24h.96c.16,0,.36-.08.6-.24s.4-.28.48-.36h.48c.08.16.18.34.3.54s.18.38.18.54c0,.32.16.48.48.48h1.56c.08-.08.18-.16.3-.24.12-.08.18-.16.18-.24,0-.16.04-.5.12-1.02s.12-.86.12-1.02c.16.08.28.16.36.24l.36.36c.08.16.16.36.24.6.08.16.12.32.12.48s.04.28.12.36c.16.16.36.44.6.84.24.4.36.64.36.72.16.08.52.16,1.08.24.56.08.96.12,1.2.12,0,.4-.12.72-.36.96,0,.08-.08.2-.24.36-.08.08-.12.16-.12.24-.08,0-.26-.1-.54-.3-.28-.2-.46-.3-.54-.3-.16.08-.44.24-.84.48-.4.24-.6.4-.6.48-.08.16-.02.36.18.6.2.24.34.4.42.48l.12.24c0,.08-.04.16-.12.24s-.28.24-.6.48c-.32.24-.48.4-.48.48-.08.08-.16.26-.24.54-.08.28-.16.46-.24.54-.08.08-.14.24-.18.48s-.06.4-.06.48h-2.39v-.24c0-.08.04-.16.12-.24l.48-.48v-.6c-.08,0-.16-.06-.24-.18-.08-.12-.16-.22-.24-.3v-3.97l-.48.48c0,.16-.14.66-.42,1.5-.28.84-.46,1.34-.54,1.5-.08.08-.32.26-.72.54-.4.28-.68.42-.84.42l-.24.24c-.08.08-.12.16-.12.24s-.04.12-.12.12c-.08.08-.16.24-.24.48-.08.24-.12.4-.12.48l-3.11-1.56c0,.16-.04.36-.12.6-.08.24-.16.4-.24.48s-.16.12-.24.12-.2.04-.36.12l-.48.24-.12.24.12.24c.16.16.42.34.78.54.36.2.58.34.66.42.16,0,.52-.02,1.08-.06.56-.04.88-.02.96.06.16,0,.28.22.36.66.08.44.12.74.12.9.08.08.34.16.78.24.44.08.66.16.66.24l.24.24c.08.08.16.12.24.12,0,.24-.16.44-.48.6h-1.91c-.08-.16-.16-.42-.24-.78s-.12-.58-.12-.66c-.16-.16-.36-.28-.6-.36-.24-.08-.44-.12-.6-.12h-.6c-.16,0-.32.04-.48.12v2.04h-1.32c-.64,0-1.28-.08-1.92-.24-.08,0-.32-.08-.72-.24-.4-.16-.68-.28-.84-.36h-.96c-.08.08-.24.16-.48.24-.24.08-.44.2-.6.36v-1.32c-.08,0-.16-.04-.24-.12h-.24c-.08.08-.16.3-.24.66s-.12.62-.12.78c-.08.08-.16.12-.24.12-.08.08-.2.12-.36.12-.08,0-.16-.04-.24-.12-.08,0-.16-.04-.24-.12l-.24-.48c-.08-.16-.12-.32-.12-.48h-.12c-.08,0-.16-.04-.24-.12l-.24.12c-.08,0-.18.06-.3.18-.12.12-.22.18-.3.18l-.12.12h-.24c-.08,0-.12-.04-.12-.12-.16,0-.56-.2-1.2-.6s-1.04-.64-1.2-.72h-.48l-.24.72c-.08.24-.16.44-.24.6-.08.08-.16.18-.24.3-.08.12-.16.22-.24.3-.08-.24-.16-.74-.24-1.5-.08-.76-.16-1.26-.24-1.5-.16-.32-.28-.6-.36-.84-.08-.16-.16-.36-.24-.6h-.96c-.08,0-.3-.08-.66-.24-.36-.16-.62-.24-.78-.24-.16.08-.28.16-.36.24l-.24.24c.4,0,.6.16.6.48.08,0,.26.06.54.18.28.12.42.22.42.3l.24.48.24.48c.08.08.12.16.12.24-.16,0-.36.04-.6.12s-.4.16-.48.24c-.08,0-.24.12-.48.36s-.44.44-.6.6c-.24.24-.36.56-.36.96h-4.43c-.32-.08-.92-.22-1.79-.42-.88-.2-1.44-.38-1.68-.54l-.24.24c-.08.08-.2.12-.36.12-.08.08-.16.28-.24.6-.08.32-.16.48-.24.48l-.48.48h-3.35c-.08-.08-.18-.32-.3-.72-.12-.4-.18-.68-.18-.84-.08,0-.18-.06-.3-.18-.12-.12-.22-.18-.3-.18l-.6.36c0,.16-.04.44-.12.84-.08.4-.16.64-.24.72l-.96-.96c-.08.16-.24.34-.48.54-.24.2-.4.34-.48.42-.08.16-.26.28-.54.36-.28.08-.46.12-.54.12s-.2.02-.36.06c-.16.04-.32.06-.48.06s-.36-.02-.6-.06c-.24-.04-.4-.06-.48-.06-.16,0-.5-.06-1.02-.18-.52-.12-.86-.22-1.02-.3,0-.08-.2-.22-.6-.42-.4-.2-.72-.38-.96-.54,0-.16-.06-.28-.18-.36-.12-.08-.22-.16-.3-.24-.08-.16-.22-.54-.42-1.14-.2-.6-.34-1.02-.42-1.26v-.48ZM186.16,278.11c-.24,0-.36.16-.36.48s.12.48.36.48.36-.16.36-.48-.12-.48-.36-.48ZM193.1,275.58c-.16-.08-.24,0-.24.24s.08.32.24.24c.32-.16.32-.32,0-.48ZM195.98,211.16h.72v-.48l-.72.48ZM196.69,283.52c-.4,0-.6.16-.6.48s.2.48.6.48c.16,0,.24-.16.24-.48s-.08-.48-.24-.48ZM198.97,272.22c-.16-.16-.24-.14-.24.06s.08.3.24.3.24-.06.24-.18-.08-.18-.24-.18ZM200.52,279.07c.08-.08.04-.14-.12-.18-.16-.04-.36-.06-.6-.06s-.44.02-.6.06c-.16.04-.24.1-.24.18.16.16.44.24.84.24s.64-.08.72-.24ZM201.96,279.55h1.08l-.6-.48-.48.48ZM204,272.22c-.24,0-.36.14-.36.42s.12.42.36.42.36-.14.36-.42-.12-.42-.36-.42ZM204.83,208.15c-.16,0-.24.16-.24.48s.08.48.24.48c.24,0,.36-.16.36-.48s-.12-.48-.36-.48ZM205.31,271.5h.72v-.36h-.72v.36ZM208.9,270.66c-.16.08-.42.22-.78.42-.36.2-.62.34-.78.42,0,.08-.04.24-.12.48-.08.24-.2.44-.36.6v.48l2.03-2.4ZM208.9,273.06h.48l-.48-.48v.48ZM209.38,237.36c-.24,0-.36.16-.36.48s.12.48.36.48.36-.16.36-.48-.12-.48-.36-.48ZM209.86,276.06c0-.16-.08-.24-.24-.24s-.24.08-.24.24c.08.16.18.24.3.24s.18-.08.18-.24ZM213.33,208.15c.08-.16-.08-.24-.48-.24s-.56.08-.48.24c.08.16.24.24.48.24s.4-.08.48-.24ZM213.33,279.55c.16.08.5.22,1.02.42.52.2.86.38,1.02.54.16.16.34.42.54.78.2.36.3.62.3.78l.48-.48v-.12c0-.08.02-.12.06-.12.04,0,.06-.04.06-.12l-.12-.24c-.08-.24-.22-.54-.42-.9s-.34-.54-.42-.54c-.08-.08-.28-.12-.6-.12h-1.32c-.08,0-.14.02-.18.06-.04.04-.1.06-.18.06h-.24ZM214.29,219.09c-.16.16-.24.36-.24.6h.36c.16,0,.26-.02.3-.06.04-.04.1-.06.18-.06l.48-.48v-1.08l-1.08,1.08ZM214.89,260.8c-.16-.16-.24-.14-.24.06s.08.3.24.3.24-.06.24-.18-.08-.18-.24-.18ZM216.2,211.16c-.16,0-.24.16-.24.48s.08.48.24.48c.24,0,.36-.16.36-.48s-.12-.48-.36-.48ZM218,274.02c-.08,0-.12.04-.12.12-.08,0-.2.04-.36.12-.16.08-.24.16-.24.24h.96v-.48h-.24ZM217.88,216.57c-.16,0-.24.1-.24.3s.08.3.24.3c.4-.16.4-.36,0-.6ZM217.76,260.08c0,.08.04.12.12.12,0,.16.12.36.36.6h.48l.6-.6v-.96c-.32-.32-.68-.48-1.08-.48-.24,0-.36.16-.36.48-.08.08-.12.16-.12.24v.6ZM218.12,228.95c0,.16.02.34.06.54.04.2.06.34.06.42s.08.2.24.36l.24.24v-1.56h-.6ZM218.24,280.03l1.08-.48-.6-.48-.48.96ZM220.15,210.68l-.48.48c0,.08-.02.26-.06.54-.04.28-.06.5-.06.66l.6-.24c.16-.08.3-.24.42-.48.12-.24.18-.4.18-.48l.12-.24v-.24h-.72ZM219.55,273.54c0,.08.02.18.06.3.04.12.06.22.06.3l.24.24c.08.08.16.12.24.12.16,0,.28-.04.36-.12l.24-.24c.08-.08.12-.28.12-.6h-1.32ZM223.74,210.68c.08-.16-.02-.24-.3-.24s-.38.08-.3.24c.24.24.44.24.6,0ZM223.15,282.07h.6v-.48h-.6v.48ZM223.74,208.15c-.32,0-.48.16-.48.48s.16.48.48.48c.24,0,.36-.16.36-.48s-.12-.48-.36-.48ZM223.74,214.52l.48-.36-.48-.48v.84ZM223.74,279.55h.96l.48-.48-.96-.96-.48,1.44ZM224.7,210.2c-.24,0-.36.16-.36.48s.12.48.36.48.36-.16.36-.48-.12-.48-.36-.48ZM225.18,208.64c-.24,0-.36.18-.36.54s.12.54.36.54.36-.18.36-.54-.12-.54-.36-.54ZM228.05,213.2c-.24,0-.36.16-.36.48s.12.48.36.48c.32,0,.48-.16.48-.48s-.16-.48-.48-.48ZM229.25,217.53v-1.92c0-.08-.08-.18-.24-.3-.16-.12-.28-.18-.36-.18l-.6.48,1.2,1.92ZM231.16,273.9c-.32,0-.48.08-.48.24-.16.08-.36.26-.6.54-.24.28-.4.42-.48.42-.08.16-.16.56-.24,1.2s-.12,1.04-.12,1.2h.84c.08-.4.2-.76.36-1.08.16-.32.28-.66.36-1.02.08-.36.16-.66.24-.9,0-.08.02-.18.06-.3.04-.12.06-.22.06-.3ZM230.09,209.12c.16.4.36.6.6.6.08-.08.2-.16.36-.24.32-.16.48-.28.48-.36v-.48c0-.32-.16-.48-.48-.48h-.36c-.4,0-.6.16-.6.48v.48ZM232,273.06c-.16-.08-.24,0-.24.24s.08.32.24.24c.16,0,.24-.06.24-.18s-.08-.22-.24-.3ZM232.6,210.32h.24c.08,0,.16-.04.24-.12l.48-.48h-.96v.6Z"/>
  <path d="M236.8,217.47c.4-.68.94-1.24,1.59-1.7.52-.37.98-.45,1.37-.23.39.21.82.16,1.28-.16s.76-.69.92-1.09.34-.88.55-1.41l.07.1c.04.06.09.08.12.06s.07,0,.12.06l.21.3c.37.52.39.9.06,1.13s-.37.51-.15.84l.21.29c.87-.71,1.74-1.2,2.62-1.48.88-.28,1.77-.51,2.66-.7.89-.19,1.79-.4,2.69-.65.9-.25,1.81-.69,2.73-1.33.18.26.2.49.05.7-.15.2-.11.47.12.8.64.92,1.44,1.78,2.39,2.58.95.8,1.88,1.51,2.8,2.14l-2.39,2.86c.15.09.41.1.77.05s.73-.14,1.12-.28c.4-.13.75-.29,1.07-.46.32-.17.52-.34.6-.5.98.29,1.83.57,2.56.84.73.27,1.34.77,1.84,1.49.05.07.11.19.19.38.08.19.15.31.19.38l-1.5-.27c-.24.36-.52.76-.85,1.19-.33.43-.45.71-.36.84.32.46.75.69,1.29.7.54.01,1.11-.05,1.71-.17.59-.13,1.2-.26,1.83-.41s1.16-.18,1.61-.11.83.25,1.16.51c.33.26.63.49.91.68.28.19.57.33.87.41.3.08.65-.01,1.04-.29.52-.37.79-.93.81-1.67.01-.74-.16-1.38-.53-1.9-.23-.33-.46-.48-.69-.47s-.42-.07-.55-.27l-.14-.2c.76-.73,1.53-1.47,2.32-2.22s1.51-1.5,2.16-2.25l-.14-.2-.14-.2c-.09-.13-.25-.26-.49-.39-.24-.13-.41-.2-.52-.22l-.14-.2-.14-.2c.2-.14.6-.5,1.22-1.08.62-.58.95-.98.98-1.21.56-.88.5-1.6-.18-2.15-.68-.55-1.22-1.12-1.63-1.71l-.69.48c-.6-.85-.79-1.94-.59-3.25.2-1.32.68-2.34,1.44-3.07-.11-.02-.3-.08-.57-.19-.27-.1-.45-.22-.54-.35l.06-.33c.04-.22.09-.36.16-.4.29-.7.62-1.2.99-1.51.37-.31.92-.63,1.67-.96-.54-.21-.99-.4-1.36-.58-.37-.18-.72-.5-1.04-.96-.51-.72-.35-1.27.46-1.64.81-.38,1.44-.72,1.9-1.04-.14-.2-.33-.6-.56-1.22-.24-.62-.71-.67-1.43-.17-.13.09-.24.39-.33.89-.09.5-.2.8-.33.89-.07.05-.34.07-.83.07-.49,0-.84-.02-1.06-.06l-.14-.2-.14-.2c.04-.22.2-.48.48-.78.28-.3.43-.5.45-.61.02-.11-.05-.36-.22-.73-.17-.37-.26-.65-.29-.83-.07-1.22.15-2.3.65-3.25.51-.94,1.12-1.74,1.84-2.39.72-.65,1.36-1.16,1.94-1.51.58-.36.84-.57.8-.64l-1.09-1.14-.24-.13c-.11-.02-.32,0-.61.06-.3.06-.5.08-.61.06-.07.05-.12.04-.17-.03-.11-.02-.19-.06-.24-.13.85-.6,1.39-1.18,1.64-1.74.24-.56.4-1.16.49-1.81.08-.65.17-1.29.25-1.94.08-.65.39-1.36.93-2.12.13-.09.51-.39,1.14-.88.63-.49,1.01-.78,1.14-.88,1.89-1.33,3.69-2.11,5.39-2.33,1.7-.22,3.33-.32,4.91-.3,1.57.02,3.06.02,4.47.01,1.4-.01,2.76-.48,4.07-1.4l2.2,3.15c.2-.14.4-.33.62-.58.21-.25.45-.47.72-.65s.53-.28.82-.29c.29,0,.57.19.85.58s.19,1.01-.24,1.86c-.44.84-.38,1.66.17,2.45l-.98.69c.18.26.28.44.3.53.01.09.23.08.65-.02l4.21-2.97c.13-.09.34-.14.63-.15.29,0,.49,0,.6.02.41.59.56,1.15.44,1.67-.12.53-.34,1.02-.64,1.48-.31.46-.68.92-1.1,1.36s-.74.93-.94,1.47c.34.35.77.34,1.29-.03l.88-.62c1.11-.78,1.61-1.5,1.49-2.15-.12-.65-.2-1.79-.26-3.41l.39-.28,2.41,3.45c.18.26.2.57.05.92-.15.35-.36.67-.64.96-.28.3-.57.57-.88.84-.3.26-.55.46-.75.6l.96,1.38,2.77-.63.51,3.46c.83-.2,1.46,0,1.87.59.37.52.35.93-.04,1.2s-.54.62-.44,1.04c-.09.16.04.27.37.33.11.02.19.06.23.13l1.67-1.17c-.02.11.02.23.11.36.05.07.07.14.09.23.01.09.04.17.09.23.1.42-.05.77-.44,1.04-.33.23-.65.33-.96.31-.31-.03-.63.08-.96.31l-.2.14-.12.67.14.2c.37.52.89.57,1.56.15.67-.43,1.11-.71,1.31-.85.32.46.46,1.12.43,1.97-.04.86-.16,1.55-.37,2.09.11.02.36.06.75.13s.77.16,1.15.29c.38.12.73.24,1.06.36.32.11.51.2.55.27.37.52.43,1.07.19,1.63-.24.56-.61,1.09-1.09,1.58-.49.49-.99.92-1.51,1.29s-.86.65-1.01.86c-.09.16-.15.52-.19,1.09-.04.57-.11.93-.19,1.09l-.2.14c-.07.05-.11.13-.13.24-.07.05-.16.09-.28.12s-.22.08-.28.12c-.13.09-.46.25-.98.47-.53.22-.88.35-1.05.37l-.14-.2c-.23-.33-.3-.6-.2-.81.09-.21.21-.44.33-.68.13-.24.18-.54.16-.92-.02-.38-.28-.93-.79-1.65-.18.03-.32.03-.43.01-.29,0-.44.07-.46.18-.02.11.06.37.25.78.19.41.27.67.25.78.05.35-.01.64-.2.87-.18.23-.37.45-.55.68-.18.23-.31.46-.38.71-.07.25.03.57.3.96-.26.18-.58.21-.96.09-.38-.13-.79-.3-1.24-.52-.45-.22-.88-.39-1.29-.49-.41-.1-.81-.01-1.21.26-.52.37-.77.78-.73,1.25.03.47-.21.88-.74,1.25-.18.03-.3.06-.36.11l-.39.28c.15-.2.24-.53.26-.99.02-.46.04-.96.05-1.5,0-.54-.03-1.06-.12-1.53-.09-.48-.2-.81-.34-1.01-.18-.26-.39-.38-.62-.37-.23.02-.44-.11-.62-.37l-.14-.2c-.03-.18,0-.46.06-.85.07-.39.15-.84.23-1.34s.16-.95.23-1.34c.07-.39.14-.67.23-.82.06-.34.19-.6.4-.79.2-.19.43-.4.67-.62.24-.22.39-.42.45-.61.06-.19-.02-.45-.25-.78s-.69-.88-1.38-1.67c-.69-.79-1.42-1.62-2.18-2.5-.76-.88-1.47-1.73-2.13-2.53-.66-.81-1.14-1.35-1.43-1.63-.71-.87-1.32-1.44-1.85-1.71-.53-.27-1.07-.35-1.63-.24-.56.1-1.18.27-1.85.49-.67.23-1.47.37-2.4.44-.19-.55-.16-.79.08-.72.24.07.43.06.56-.03-.32-.46-.57-.89-.76-1.3-.19-.41-.38-.71-.57-.92-.19-.21-.47-.25-.83-.15-.36.11-.9.42-1.62.92s-.87,1.05-.46,1.64c.32.46.74.53,1.25.22s.91-.27,1.18.12c-.39.28-.9.7-1.51,1.28-.62.58-1.17,1.22-1.67,1.91-.49.69-.85,1.4-1.06,2.14-.22.74-.14,1.37.23,1.89l-.07-.1c-.16-.09-.29-.14-.4-.16-.11-.02-.2,0-.26.04s-.12.04-.17-.03l-.39.28c-.39.28-.51.67-.34,1.19.17.52.32,1.05.45,1.59.13.54.14,1.08.02,1.6-.12.52-.6.89-1.44,1.08.35-.05.69.15,1.01.61.37.52.43,1,.18,1.41-.25.42-.53.81-.85,1.19-.32.38-.6.79-.82,1.24-.22.45-.15.94.22,1.46l.28.39c.1-.56.33-.99.7-1.3s.72-.58,1.04-.81.57-.55.73-.95c.16-.4.13-.97-.09-1.7.16.09.29.21.41.37l.24.34c.37.52.55,1.13.54,1.82,0,.69-.05,1.4-.12,2.14-.07.73-.15,1.45-.25,2.16-.1.7-.03,1.36.21,1.98.14.49.35,1.12.61,1.92.26.79.36,1.22.29,1.26l-2.7,5.13c.13-.09.38-.19.74-.3.36-.11.63-.18.81-.2l.17.03.07.1.07.1-.03.17c-.5,1.23-1.2,2.41-2.08,3.52l1.04.44c-.84.2-1.59.63-2.24,1.29-.66.66-1.19,1.4-1.59,2.22-.4.82-.64,1.7-.72,2.63s.05,1.78.37,2.53c-.27.87-.61,1.75-1.02,2.62-.41.88-.98,1.57-1.7,2.07-.39.28-1.15.34-2.27.2-1.12-.14-1.77-.54-1.94-1.2-.35,1.03-1.02,1.89-2,2.58-.39.28-1.06.62-1.99,1.03-.93.41-1.63.29-2.08-.37l-.14-.2c.02-.11,0-.29-.08-.53-.07-.24-.09-.48-.05-.7l-.29.21-.2.14c-.22.25-.54.62-.97,1.12-.43.5-.71.79-.84.89l-.12.67c-.22-.04-.55-.05-.98-.04-.43.01-.74.03-.91.06-.88.13-1.46.15-1.73.04-.27-.1-.8-.17-1.6-.2-.19.43-.15.84.13,1.23l-1.27.9c-.41-.59-.52-1.27-.33-2.04.19-.77.13-1.39-.19-1.85l-.24-.13-5.32,2.43c-.13.09-.35.05-.67-.12l-.14-.2c-.18-.26-.21-.51-.09-.75.13-.24.28-.44.45-.61.17-.17.33-.36.49-.56.15-.2.13-.44-.05-.7-.41-.59-.91-.78-1.49-.56-.58.21-1.16.47-1.73.77l-.34-.49c-.37-.53-.39-1.15-.06-1.87.33-.72.59-1.29.77-1.72-.3-.28-.54-.35-.74-.22l-.69.48c-.33.23-.48.46-.46.69s-.14.46-.47.7-.69.44-1.1.63c-.4.19-.77.05-1.09-.41-.05-.07-.07-.14-.09-.23-.01-.09-.07-.2-.16-.33.22.04.5-.16.83-.59.33-.43.52-.76.56-.98l-.21-.3-.14-.2c-.05-.07-.03-.12.03-.17-.23-.33-.48-.66-.77-1-.28-.34-.62-.37-1.02-.09l-.2.14c-.02.11,0,.32.07.62.06.3.08.5.06.61l-.03.17c-.06.05-.08.1-.03.17-.46-.66-.8-1-1.02-1.04-.22-.04-.41.04-.56.25-.15.2-.36.42-.63.66-.27.24-.66.34-1.17.31-.11-.02-.36-.24-.75-.65-.39-.42-.66-.66-.81-.75-.09-.13-.29-.14-.6-.02-.31.12-.52.17-.63.15-.06.04-.12.04-.17-.03l-.21-.29c-.37-.53-.44-1.01-.22-1.46.22-.45.1-1-.36-1.66-.09-.13-.24-.32-.46-.56-.22-.24-.35-.39-.39-.46s-.28-.09-.71-.08c-.43.01-.69-.05-.79-.18s-.09-.45,0-.95c.09-.5.09-.82,0-.95-.03-.18-.12-.48-.27-.91-.15-.43-.28-.9-.4-1.41-.11-.51-.24-.98-.4-1.41-.15-.43-.27-.77-.34-1.01ZM289.2,172.35c-.18-.26-.41-.3-.67-.12s-.3.41-.12.67c.14.2.34.2.6.02s.32-.37.19-.57ZM283.33,179.43c-.33.23-.44.53-.33.89.11.36.28.71.51,1.04.37.52.71.84,1.03.96.32.12.75-.01,1.27-.38.13-.09.35-.27.65-.53.3-.26.37-.58.21-.95-.19.43-.46.64-.8.64-.34,0-.68-.11-1.02-.31-.34-.2-.64-.43-.91-.68-.27-.25-.48-.47-.61-.67ZM281.47,182.2c-.19.43-.15.84.13,1.23l.49-.35-.62-.89ZM283.61,183.19c.46.66.36,1.29-.29,1.89-.65.61-1.14,1.02-1.46,1.25,1.02.35,2.06.23,3.11-.36s1.93-1.14,2.65-1.65l.34-.24c.1-.07.1-.31,0-.73-.63.64-1.33.89-2.11.75-.78-.14-1.43-.51-1.95-1.12l-.29.21ZM276.77,189.92c-.14-.2-.35-.19-.65.01s-.37.41-.23.61c.18.26.42.29.72.08s.35-.44.17-.7ZM278.04,189.02c-.03-.18-.14-.2-.33-.06s-.25.27-.16.4c.16.09.3.08.43,0s.15-.2.06-.33ZM238.97,217.85l.34.49.39-.28-.34-.49-.39.28ZM301.31,175.87c-.56-.1-.96-.05-1.23.13l.34.49.88-.62ZM243.63,217.21c.17-.03.2-.14.06-.34s-.27-.25-.4-.16c-.08.16-.08.3.01.43s.2.15.33.06ZM278.13,192.92l.27.39.49-.35-.76-.05ZM242.65,220.4c-.55-.79-1.02-1.19-1.42-1.2-.4-.01-.65.21-.77.68s-.06,1.14.16,2.01.67,1.8,1.36,2.78c.05.07.13-.09.25-.47s.22-.84.28-1.37c.06-.54.11-1.06.15-1.57.03-.51.02-.8-.02-.87ZM295.88,180.86c-.65.46-.75,1.02-.29,1.67l.98-.69-.69-.98ZM239.87,221.03c-.14-.2-.35-.19-.65.01s-.37.41-.24.61c.18.26.42.29.72.08s.35-.44.17-.7ZM297.84,180.95l.55.79.39-.28-.55-.79-.39.28ZM301.55,178.93c-.14-.2-.35-.19-.65.01s-.37.41-.23.61.35.19.65-.01.37-.41.23-.61ZM278.25,196.65c-.13.09-.31.29-.53.6-.23.31-.38.54-.47.69.36.24.79.23,1.29-.03.5-.26.82-.43.95-.52-.14-.2-.33-.4-.58-.62-.25-.22-.47-.26-.67-.12ZM244.54,220.39c-.46.32-.66.66-.61,1.01.07-.05.16-.09.28-.12s.21-.08.28-.12c.39-.28.54-.62.44-1.04l-.39.28ZM281.47,194.97c-.14-.2-.34-.2-.6-.02s-.32.37-.19.57.34.2.6.02.32-.38.19-.57ZM255.13,217.34c-.23-.04-.79-.23-1.71-.56-.91-.34-1.47-.43-1.67-.3l1.25,3.67,2.13-2.82ZM304.12,180.94c-.03-.18-.12-.21-.28-.09s-.2.24-.11.37c.16.09.28.09.38.02s.1-.17,0-.3ZM276.49,202.3l.41.59c.26-.18.38-.56.37-1.14l-.78.55ZM281.44,203.95c-.03-.18-.14-.2-.33-.06s-.25.27-.16.4c.55.1.72-.02.49-.35ZM313.59,184.25c-.32-.46-.71-.63-1.16-.51-.45.12-.84.3-1.17.53l-.69.48c.31.17.78.35,1.41.55.62.2,1.13.16,1.52-.12.26-.18.3-.41.12-.67l-.04-.27ZM282.34,205.23l.28.39.39-.28-.28-.39-.39.28ZM287.44,203.54c-.14-.2-.34-.2-.6-.02s-.32.37-.19.57.34.2.6.02.32-.37.19-.57ZM279.27,209c-.33.23-.41.6-.24,1.12.17.52.3.84.39.97.16.09.38.12.67.12.29,0,.47-.09.56-.25l-1.37-1.97ZM253.73,227.27l.76.05-.27-.39-.49.34ZM286.44,204.83l.34.49.15-.84-.49.35ZM281.69,208.91l.67.12-.62-.89-.05.77ZM284.91,207.23c-.14-.2-.34-.2-.6-.02s-.32.37-.19.57c.18.26.41.3.67.12s.3-.41.12-.67ZM279.37,211.86c-.6-.16-1.04-.15-1.29.03l.41.59.88-.62ZM256.35,229.98c-.32-.46-.69-.64-1.11-.54l.89,1.28c.33-.23.4-.48.21-.74ZM282.47,210.86l.48.69c.2-.14.4-.33.62-.58.22-.25.27-.58.18-1l-1.27.9ZM288.42,208.28c-.14-.2-.37-.25-.7-.17-.33.09-.68.21-1.05.38-.37.16-.71.35-1,.56l-.54.38c.27.39.66.66,1.15.81.49.14.93.08,1.32-.2.2-.14.44-.38.73-.73.29-.35.32-.69.09-1.02ZM279.66,214.16l.28.39,1-1.29-1.27.9ZM316.98,188.47c-.14-.2-.34-.2-.6-.02s-.32.37-.19.57c.18.26.4.3.67.12s.3-.41.12-.67ZM288.81,210.94c.04-.23-.14-.2-.53.08s-.51.46-.35.54c.64-.06.93-.27.88-.62ZM277.67,218.64c-.52.37-1,.87-1.43,1.52-.43.64-.39,1.33.11,2.05l.27.39c.2.15.53.48.99.99.45.51.76.81.92.9.11.02.2,0,.27-.04.26-.18.34-.39.23-.61-.11-.22-.21-.44-.32-.66-.1-.22-.16-.47-.17-.76,0-.29.19-.57.58-.85-.65-.23-1.02-.44-1.09-.62-.08-.19-.31-.54-.67-1.07.52-.37.97-.56,1.35-.58.37-.02.47-.51.3-1.46-.13.09-.36.22-.67.4-.32.17-.54.31-.67.4ZM267.82,226.31c-.03-.18-.14-.2-.33-.06s-.25.27-.16.4c.16.08.3.08.43-.01s.15-.2.06-.33ZM283.87,215.59c.17-.03.21-.12.09-.29s-.24-.2-.37-.11c-.09.16-.09.29-.02.38s.17.1.3,0ZM269.76,225.53c-.14-.2-.35-.19-.65.02s-.37.41-.23.61c.18.26.42.29.71.08s.35-.44.17-.7ZM282.94,216.98c-.59.41-.86,1-.82,1.75l2.25-1.59c-.37-.53-.84-.58-1.43-.17ZM318.11,192.81c-.14-.2-.34-.2-.6-.02s-.32.37-.19.57.34.2.6.02.32-.37.19-.57ZM285.77,215.58c-.26.47-.25.91.03,1.3l.59-.41-.62-.89ZM284.34,221.28c-.5-.72-1.11-1.27-1.82-1.66-.71-.38-1.45-.3-2.24.25.37.52.97,1.01,1.81,1.44s1.59.42,2.24-.04ZM315.45,197.18l.41.59c.39-.28.55-.68.47-1.21l-.88.62ZM284.73,219.54l.28.39.12-.67-.39.28ZM274.72,227.18l.34.49.88-.62-.34-.49-.88.62ZM275.01,232.84c-.23-.33-.54-.57-.95-.73-.4-.16-.83-.27-1.27-.35l.41.59c.55.79,1.15.95,1.8.49ZM276.45,230.51c.43.19.8.17,1.13-.06l-.34-.49-.79.55ZM281.43,227.59c-.03-.18-.14-.2-.33-.06s-.25.27-.16.4c.15.09.3.08.43,0s.15-.2.06-.34ZM279.94,229.22c-.14-.2-.34-.2-.6-.02s-.32.38-.19.57c.18.26.41.3.67.12s.3-.41.12-.67Z"/>
</svg>